<svg version="1.1" viewBox="0.0 0.0 644.0 555.0" fill="none" stroke="none" stroke-linecap="square" stroke-miterlimit="10" xmlns:xlink="http://www.w3.org/1999/xlink" xmlns="http://www.w3.org/2000/svg"><clipPath id="p.0"><path d="m0 0l644.0 0l0 555.0l-644.0 0l0 -555.0z" clip-rule="nonzero"/></clipPath><g clip-path="url(#p.0)"><path fill="#000000" fill-opacity="0.0" d="m0 0l644.0 0l0 555.0l-644.0 0z" fill-rule="evenodd"/><path fill="#f1f1f1" d="m6.0275593 13.534277l0 0c0 -4.308197 3.4924831 -7.800681 7.800681 -7.800681l138.69785 0c2.068863 0 4.052994 0.82185507 5.515915 2.2847662c1.4629059 1.4629116 2.2847595 3.4470453 2.2847595 5.515915l0 31.201788c0 4.308197 -3.4924774 7.800682 -7.8006744 7.800682l-138.69785 0c-4.308198 0 -7.800681 -3.492485 -7.800681 -7.800682z" fill-rule="evenodd"/><path stroke="#848484" stroke-width="1.0" stroke-linejoin="round" stroke-linecap="butt" d="m6.0275593 13.534277l0 0c0 -4.308197 3.4924831 -7.800681 7.800681 -7.800681l138.69785 0c2.068863 0 4.052994 0.82185507 5.515915 2.2847662c1.4629059 1.4629116 2.2847595 3.4470453 2.2847595 5.515915l0 31.201788c0 4.308197 -3.4924774 7.800682 -7.8006744 7.800682l-138.69785 0c-4.308198 0 -7.800681 -3.492485 -7.800681 -7.800682z" fill-rule="evenodd"/><path fill="#000000" d="m72.94388 20.99642l-2.453125 0l0 4.21875l-1.375 0l0 -10.421875l3.453125 0q1.75 0 2.703125 0.8125q0.953125 0.796875 0.953125 2.328125q0 0.96875 -0.53125 1.703125q-0.53125 0.71875 -1.46875 1.0625l2.453125 4.4375l0 0.078125l-1.46875 0l-2.265625 -4.21875zm-2.453125 -1.125l2.109375 0q1.03125 0 1.625 -0.515625q0.609375 -0.53125 0.609375 -1.421875q0 -0.96875 -0.578125 -1.484375q-0.5625 -0.515625 -1.65625 -0.515625l-2.109375 0l0 3.9375zm7.10231 1.40625q0 -1.140625 0.4375 -2.046875q0.453125 -0.921875 1.25 -1.40625q0.796875 -0.5 1.828125 -0.5q1.578125 0 2.546875 1.09375q0.984375 1.09375 0.984375 2.921875l0 0.09375q0 1.125 -0.4375 2.03125q-0.4375 0.890625 -1.25 1.390625q-0.796875 0.5 -1.84375 0.5q-1.5625 0 -2.546875 -1.09375q-0.96875 -1.09375 -0.96875 -2.890625l0 -0.09375zm1.328125 0.15625q0 1.28125 0.59375 2.0625q0.59375 0.78125 1.59375 0.78125q1.015625 0 1.609375 -0.78125q0.59375 -0.796875 0.59375 -2.21875q0 -1.28125 -0.609375 -2.0625q-0.59375 -0.796875 -1.59375 -0.796875q-0.984375 0 -1.59375 0.78125q-0.59375 0.78125 -0.59375 2.234375zm7.0305176 -0.15625q0 -1.140625 0.4375 -2.046875q0.453125 -0.921875 1.25 -1.40625q0.796875 -0.5 1.828125 -0.5q1.578125 0 2.546875 1.09375q0.984375 1.09375 0.984375 2.921875l0 0.09375q0 1.125 -0.4375 2.03125q-0.4375 0.890625 -1.25 1.390625q-0.796875 0.5 -1.84375 0.5q-1.5625 0 -2.546875 -1.09375q-0.96875 -1.09375 -0.96875 -2.890625l0 -0.09375zm1.328125 0.15625q0 1.28125 0.59375 2.0625q0.59375 0.78125 1.59375 0.78125q1.015625 0 1.609375 -0.78125q0.59375 -0.796875 0.59375 -2.21875q0 -1.28125 -0.609375 -2.0625q-0.59375 -0.796875 -1.59375 -0.796875q-0.984375 0 -1.59375 0.78125q-0.59375 0.78125 -0.59375 2.234375zm9.171143 -5.84375l0 1.875l1.453125 0l0 1.03125l-1.453125 0l0 4.796875q0 0.46875 0.1875 0.703125q0.203125 0.234375 0.671875 0.234375q0.21875 0 0.625 -0.09375l0 1.078125q-0.53125 0.140625 -1.015625 0.140625q-0.890625 0 -1.34375 -0.53125q-0.453125 -0.546875 -0.453125 -1.53125l0 -4.796875l-1.40625 0l0 -1.03125l1.40625 0l0 -1.875l1.328125 0z" fill-rule="nonzero"/><path fill="#000000" d="m40.512207 38.980793q0 -1.609375 0.421875 -3.09375q0.4375 -1.5 1.296875 -2.703125q0.859375 -1.21875 1.78125 -1.734375l0.28125 0.875q-1.046875 0.8125 -1.71875 2.453125q-0.671875 1.640625 -0.734375 3.6875l0 0.609375q0 2.765625 1.0 4.796875q0.609375 1.21875 1.453125 1.90625l-0.28125 0.796875q-0.953125 -0.53125 -1.8125 -1.765625q-1.6875 -2.4375 -1.6875 -5.828125zm8.806335 -2.328125q-0.3125 -0.046875 -0.65625 -0.046875q-1.296875 0 -1.765625 1.109375l0 5.5l-1.328125 0l0 -7.75l1.296875 0l0.015625 0.90625q0.65625 -1.046875 1.84375 -1.046875q0.390625 0 0.59375 0.109375l0 1.21875zm5.990616 5.796875q-0.765625 0.90625 -2.265625 0.90625q-1.234375 0 -1.890625 -0.71875q-0.640625 -0.71875 -0.65625 -2.125l0 -5.046875l1.328125 0l0 5.015625q0 1.75 1.4375 1.75q1.515625 0 2.015625 -1.125l0 -5.640625l1.328125 0l0 7.75l-1.265625 0l-0.03125 -0.765625zm4.548294 -6.984375l0.046875 0.984375q0.890625 -1.125 2.3125 -1.125q2.46875 0 2.484375 2.78125l0 5.109375l-1.328125 0l0 -5.125q0 -0.84375 -0.375 -1.234375q-0.375 -0.40625 -1.171875 -0.40625q-0.640625 0 -1.140625 0.34375q-0.484375 0.34375 -0.75 0.90625l0 5.515625l-1.328125 0l0 -7.75l1.25 0zm7.0398254 7.75l0 -10.421875l3.40625 0q1.703125 0 2.546875 0.703125q0.859375 0.703125 0.859375 2.078125q0 0.734375 -0.421875 1.296875q-0.40625 0.546875 -1.125 0.859375q0.859375 0.234375 1.34375 0.90625q0.484375 0.65625 0.484375 1.578125q0 1.390625 -0.90625 2.203125q-0.90625 0.796875 -2.5625 0.796875l-3.625 0zm1.375 -4.875l0 3.75l2.28125 0q0.953125 0 1.5 -0.5q0.5625 -0.5 0.5625 -1.359375q0 -1.890625 -2.046875 -1.890625l-2.296875 0zm0 -1.09375l2.078125 0q0.90625 0 1.4375 -0.453125q0.546875 -0.453125 0.546875 -1.234375q0 -0.859375 -0.5 -1.234375q-0.5 -0.390625 -1.53125 -0.390625l-2.03125 0l0 3.3125zm8.983749 5.96875l-1.328125 0l0 -11.0l1.328125 0l0 11.0zm1.7754669 -3.9375q0 -1.140625 0.4375 -2.046875q0.453125 -0.921875 1.25 -1.40625q0.796875 -0.5 1.828125 -0.5q1.578125 0 2.546875 1.09375q0.984375 1.09375 0.984375 2.921875l0 0.09375q0 1.125 -0.4375 2.03125q-0.4375 0.890625 -1.25 1.390625q-0.796875 0.5 -1.84375 0.5q-1.5625 0 -2.546875 -1.09375q-0.96875 -1.09375 -0.96875 -2.890625l0 -0.09375zm1.328125 0.15625q0 1.28125 0.59375 2.0625q0.59375 0.78125 1.59375 0.78125q1.015625 0 1.609375 -0.78125q0.59375 -0.796875 0.59375 -2.21875q0 -1.28125 -0.609375 -2.0625q-0.59375 -0.796875 -1.59375 -0.796875q-0.984375 0 -1.59375 0.78125q-0.59375 0.78125 -0.59375 2.234375zm10.483643 2.84375q0.703125 0 1.234375 -0.421875q0.53125 -0.4375 0.59375 -1.078125l1.25 0q-0.03125 0.65625 -0.453125 1.265625q-0.421875 0.59375 -1.140625 0.953125q-0.703125 0.359375 -1.484375 0.359375q-1.578125 0 -2.515625 -1.046875q-0.9375 -1.0625 -0.9375 -2.890625l0 -0.21875q0 -1.140625 0.40625 -2.015625q0.421875 -0.875 1.203125 -1.359375q0.78125 -0.5 1.828125 -0.5q1.3125 0 2.171875 0.78125q0.859375 0.78125 0.921875 2.03125l-1.25 0q-0.0625 -0.75 -0.578125 -1.234375q-0.5 -0.484375 -1.265625 -0.484375q-1.0 0 -1.5625 0.734375q-0.546875 0.71875 -0.546875 2.09375l0 0.25q0 1.328125 0.546875 2.0625q0.546875 0.71875 1.578125 0.71875zm6.718506 -2.640625l-0.828125 0.859375l0 2.71875l-1.3125 0l0 -11.0l1.3125 0l0 6.65625l0.71875 -0.859375l2.40625 -2.546875l1.609375 0l-3.015625 3.234375l3.359375 4.515625l-1.546875 0l-2.703125 -3.578125zm6.709564 3.578125l-1.328125 0l0 -7.75l1.328125 0l0 7.75zm-1.421875 -9.796875q0 -0.328125 0.1875 -0.546875q0.203125 -0.21875 0.578125 -0.21875q0.390625 0 0.59375 0.21875q0.203125 0.21875 0.203125 0.546875q0 0.328125 -0.203125 0.546875q-0.203125 0.203125 -0.59375 0.203125q-0.375 0 -0.578125 -0.203125q-0.1875 -0.21875 -0.1875 -0.546875zm4.791092 2.046875l0.046875 0.984375q0.890625 -1.125 2.3125 -1.125q2.46875 0 2.484375 2.78125l0 5.109375l-1.328125 0l0 -5.125q0 -0.84375 -0.375 -1.234375q-0.375 -0.40625 -1.171875 -0.40625q-0.640625 0 -1.140625 0.34375q-0.484375 0.34375 -0.75 0.90625l0 5.515625l-1.328125 0l0 -7.75l1.25 0zm6.5242004 3.8125q0 -1.8125 0.828125 -2.875q0.84375 -1.078125 2.234375 -1.078125q1.40625 0 2.203125 1.0l0.0625 -0.859375l1.21875 0l0 7.5625q0 1.5 -0.890625 2.359375q-0.890625 0.875 -2.40625 0.875q-0.828125 0 -1.640625 -0.359375q-0.796875 -0.359375 -1.21875 -0.984375l0.6875 -0.78125q0.859375 1.046875 2.078125 1.046875q0.96875 0 1.5 -0.546875q0.546875 -0.546875 0.546875 -1.53125l0 -0.65625q-0.78125 0.90625 -2.15625 0.90625q-1.359375 0 -2.203125 -1.09375q-0.84375 -1.09375 -0.84375 -2.984375zm1.328125 0.15625q0 1.3125 0.53125 2.0625q0.546875 0.734375 1.515625 0.734375q1.25 0 1.828125 -1.140625l0 -3.53125q-0.609375 -1.109375 -1.8125 -1.109375q-0.96875 0 -1.515625 0.75q-0.546875 0.75 -0.546875 2.234375zm10.2695465 -0.375q0 1.59375 -0.421875 3.0625q-0.421875 1.453125 -1.28125 2.6875q-0.859375 1.25 -1.8125 1.765625l-0.28125 -0.796875q1.109375 -0.859375 1.78125 -2.625q0.671875 -1.78125 0.6875 -3.953125l0 -0.234375q0 -1.5 -0.328125 -2.78125q-0.3125 -1.296875 -0.875 -2.3125q-0.5625 -1.03125 -1.265625 -1.609375l0.28125 -0.8125q0.953125 0.53125 1.796875 1.765625q0.859375 1.21875 1.28125 2.6875q0.4375 1.46875 0.4375 3.15625z" fill-rule="nonzero"/><path fill="#f1f1f1" d="m217.55621 97.497955l0 0c0 -4.308197 3.4924927 -7.8006744 7.8006897 -7.8006744l138.69785 0c2.0688782 0 4.053009 0.82185364 5.51593 2.2847595c1.4628906 1.4629135 2.2847595 3.447052 2.2847595 5.515915l0 31.201797c0 4.308197 -3.4924927 7.8006744 -7.8006897 7.8006744l-138.69785 0c-4.308197 0 -7.8006897 -3.4924774 -7.8006897 -7.8006744z" fill-rule="evenodd"/><path stroke="#848484" stroke-width="1.0" stroke-linejoin="round" stroke-linecap="butt" d="m217.55621 97.497955l0 0c0 -4.308197 3.4924927 -7.8006744 7.8006897 -7.8006744l138.69785 0c2.0688782 0 4.053009 0.82185364 5.51593 2.2847595c1.4628906 1.4629135 2.2847595 3.447052 2.2847595 5.515915l0 31.201797c0 4.308197 -3.4924927 7.8006744 -7.8006897 7.8006744l-138.69785 0c-4.308197 0 -7.8006897 -3.4924774 -7.8006897 -7.8006744z" fill-rule="evenodd"/><path fill="#000000" d="m276.90976 114.10073l0 4.078125l-1.375 0l0 -10.421875l3.84375 0q1.71875 0 2.6875 0.875q0.96875 0.875 0.96875 2.3125q0 1.515625 -0.953125 2.34375q-0.9375 0.8125 -2.71875 0.8125l-2.453125 0zm0 -1.125l2.46875 0q1.109375 0 1.6875 -0.515625q0.59375 -0.515625 0.59375 -1.5q0 -0.9375 -0.59375 -1.484375q-0.578125 -0.5625 -1.609375 -0.578125l-2.546875 0l0 4.078125zm9.105408 5.203125l-1.328125 0l0 -11.0l1.328125 0l0 11.0zm6.900482 -0.765625q-0.765625 0.90625 -2.265625 0.90625q-1.234375 0 -1.890625 -0.71875q-0.640625 -0.71875 -0.65625 -2.125l0 -5.046875l1.328125 0l0 5.015625q0 1.75 1.4375 1.75q1.515625 0 2.015625 -1.125l0 -5.640625l1.328125 0l0 7.75l-1.265625 0l-0.03125 -0.765625zm2.9857788 -3.171875q0 -1.8125 0.828125 -2.875q0.84375 -1.078125 2.234375 -1.078125q1.40625 0 2.203125 1.0l0.0625 -0.859375l1.21875 0l0 7.5625q0 1.5 -0.890625 2.359375q-0.890625 0.875 -2.40625 0.875q-0.828125 0 -1.640625 -0.359375q-0.796875 -0.359375 -1.21875 -0.984375l0.6875 -0.78125q0.859375 1.046875 2.078125 1.046875q0.96875 0 1.5 -0.546875q0.546875 -0.546875 0.546875 -1.53125l0 -0.65625q-0.78125 0.90625 -2.15625 0.90625q-1.359375 0 -2.203125 -1.09375q-0.84375 -1.09375 -0.84375 -2.984375zm1.328125 0.15625q0 1.3125 0.53125 2.0625q0.546875 0.734375 1.515625 0.734375q1.25 0 1.828125 -1.140625l0 -3.53125q-0.609375 -1.109375 -1.8125 -1.109375q-0.96875 0 -1.515625 0.75q-0.546875 0.75 -0.546875 2.234375zm8.644562 3.78125l-1.328125 0l0 -7.75l1.328125 0l0 7.75zm-1.421875 -9.796875q0 -0.328125 0.1875 -0.546875q0.203125 -0.21875 0.578125 -0.21875q0.390625 0 0.59375 0.21875q0.203125 0.21875 0.203125 0.546875q0 0.328125 -0.203125 0.546875q-0.203125 0.203125 -0.59375 0.203125q-0.375 0 -0.578125 -0.203125q-0.1875 -0.21875 -0.1875 -0.546875zm4.7910767 2.046875l0.046875 0.984375q0.890625 -1.125 2.3125 -1.125q2.46875 0 2.484375 2.78125l0 5.109375l-1.328125 0l0 -5.125q0 -0.84375 -0.375 -1.234375q-0.375 -0.40625 -1.171875 -0.40625q-0.640625 0 -1.140625 0.34375q-0.484375 0.34375 -0.75 0.90625l0 5.515625l-1.328125 0l0 -7.75l1.25 0z" fill-rule="nonzero"/><path fill="#f1f1f1" d="m6.0275593 181.50266l0 0c0 -4.308197 3.4924831 -7.8006744 7.800681 -7.8006744l138.69785 0c2.068863 0 4.052994 0.82185364 5.515915 2.2847595c1.4629059 1.4629211 2.2847595 3.447052 2.2847595 5.515915l0 31.201797c0 4.308197 -3.4924774 7.8006744 -7.8006744 7.8006744l-138.69785 0c-4.308198 0 -7.800681 -3.4924774 -7.800681 -7.8006744z" fill-rule="evenodd"/><path stroke="#848484" stroke-width="1.0" stroke-linejoin="round" stroke-linecap="butt" d="m6.0275593 181.50266l0 0c0 -4.308197 3.4924831 -7.8006744 7.800681 -7.8006744l138.69785 0c2.068863 0 4.052994 0.82185364 5.515915 2.2847595c1.4629059 1.4629211 2.2847595 3.447052 2.2847595 5.515915l0 31.201797c0 4.308197 -3.4924774 7.8006744 -7.8006744 7.8006744l-138.69785 0c-4.308198 0 -7.800681 -3.4924774 -7.800681 -7.8006744z" fill-rule="evenodd"/><path fill="#000000" d="m53.369324 190.4648l-4.375 0l-0.96875 2.71875l-1.421875 0l3.96875 -10.421875l1.203125 0l4.0 10.421875l-1.421875 0l-0.984375 -2.71875zm-3.953125 -1.125l3.546875 0l-1.78125 -4.875l-1.765625 4.875zm14.092163 0.0625q0 1.765625 -0.8125 2.84375q-0.8125 1.078125 -2.1875 1.078125q-1.40625 0 -2.21875 -0.890625l0 3.734375l-1.328125 0l0 -10.734375l1.21875 0l0.0625 0.859375q0.796875 -1.0 2.234375 -1.0q1.40625 0 2.21875 1.0625q0.8125 1.046875 0.8125 2.921875l0 0.125zm-1.328125 -0.15625q0 -1.3125 -0.5625 -2.0625q-0.546875 -0.765625 -1.53125 -0.765625q-1.203125 0 -1.796875 1.0625l0 3.703125q0.59375 1.0625 1.8125 1.0625q0.953125 0 1.515625 -0.75q0.5625 -0.765625 0.5625 -2.25zm9.5507965 0.15625q0 1.765625 -0.8125 2.84375q-0.8125 1.078125 -2.1875 1.078125q-1.40625 0 -2.21875 -0.890625l0 3.734375l-1.328125 0l0 -10.734375l1.21875 0l0.0625 0.859375q0.796875 -1.0 2.234375 -1.0q1.40625 0 2.21875 1.0625q0.8125 1.046875 0.8125 2.921875l0 0.125zm-1.328125 -0.15625q0 -1.3125 -0.5625 -2.0625q-0.546875 -0.765625 -1.53125 -0.765625q-1.203125 0 -1.796875 1.0625l0 3.703125q0.59375 1.0625 1.8125 1.0625q0.953125 0 1.515625 -0.75q0.5625 -0.765625 0.5625 -2.25zm4.4414215 3.9375l-1.328125 0l0 -11.0l1.328125 0l0 11.0zm3.556717 0l-1.328125 0l0 -7.75l1.328125 0l0 7.75zm-1.421875 -9.796875q0 -0.328125 0.1875 -0.546875q0.203125 -0.21875 0.578125 -0.21875q0.390625 0 0.59375 0.21875q0.203125 0.21875 0.203125 0.546875q0 0.328125 -0.203125 0.546875q-0.203125 0.203125 -0.59375 0.203125q-0.375 0 -0.578125 -0.203125q-0.1875 -0.21875 -0.1875 -0.546875zm6.650467 8.859375q0.703125 0 1.234375 -0.421875q0.53125 -0.4375 0.59375 -1.078125l1.25 0q-0.03125 0.65625 -0.453125 1.265625q-0.421875 0.59375 -1.140625 0.953125q-0.703125 0.359375 -1.484375 0.359375q-1.578125 0 -2.515625 -1.046875q-0.9375 -1.0625 -0.9375 -2.890625l0 -0.21875q0 -1.140625 0.40625 -2.015625q0.421875 -0.875 1.203125 -1.359375q0.78125 -0.5 1.828125 -0.5q1.3125 0 2.171875 0.78125q0.859375 0.78125 0.921875 2.03125l-1.25 0q-0.0625 -0.75 -0.578125 -1.234375q-0.5 -0.484375 -1.265625 -0.484375q-1.0 0 -1.5625 0.734375q-0.546875 0.71875 -0.546875 2.09375l0 0.25q0 1.328125 0.546875 2.0625q0.546875 0.71875 1.578125 0.71875zm9.343506 0.9375q-0.109375 -0.234375 -0.1875 -0.8125q-0.921875 0.953125 -2.203125 0.953125q-1.140625 0 -1.875 -0.640625q-0.734375 -0.65625 -0.734375 -1.640625q0 -1.21875 0.921875 -1.875q0.921875 -0.671875 2.578125 -0.671875l1.296875 0l0 -0.609375q0 -0.703125 -0.421875 -1.109375q-0.40625 -0.40625 -1.21875 -0.40625q-0.703125 0 -1.1875 0.359375q-0.484375 0.34375 -0.484375 0.859375l-1.328125 0q0 -0.578125 0.40625 -1.109375q0.421875 -0.546875 1.125 -0.859375q0.703125 -0.328125 1.546875 -0.328125q1.34375 0 2.09375 0.671875q0.765625 0.671875 0.796875 1.84375l0 3.5625q0 1.0625 0.265625 1.703125l0 0.109375l-1.390625 0zm-2.203125 -1.015625q0.625 0 1.1875 -0.3125q0.5625 -0.328125 0.8125 -0.84375l0 -1.578125l-1.046875 0q-2.421875 0 -2.421875 1.421875q0 0.625 0.40625 0.96875q0.421875 0.34375 1.0625 0.34375zm7.1909485 -8.609375l0 1.875l1.453125 0l0 1.03125l-1.453125 0l0 4.796875q0 0.46875 0.1875 0.703125q0.203125 0.234375 0.671875 0.234375q0.21875 0 0.625 -0.09375l0 1.078125q-0.53125 0.140625 -1.015625 0.140625q-0.890625 0 -1.34375 -0.53125q-0.453125 -0.546875 -0.453125 -1.53125l0 -4.796875l-1.40625 0l0 -1.03125l1.40625 0l0 -1.875l1.328125 0zm4.428238 9.625l-1.328125 0l0 -7.75l1.328125 0l0 7.75zm-1.421875 -9.796875q0 -0.328125 0.1875 -0.546875q0.203125 -0.21875 0.578125 -0.21875q0.390625 0 0.59375 0.21875q0.203125 0.21875 0.203125 0.546875q0 0.328125 -0.203125 0.546875q-0.203125 0.203125 -0.59375 0.203125q-0.375 0 -0.578125 -0.203125q-0.1875 -0.21875 -0.1875 -0.546875zm3.197342 5.859375q0 -1.140625 0.4375 -2.046875q0.453125 -0.921875 1.25 -1.40625q0.796875 -0.5 1.828125 -0.5q1.578125 0 2.546875 1.09375q0.984375 1.09375 0.984375 2.921875l0 0.09375q0 1.125 -0.4375 2.03125q-0.4375 0.890625 -1.25 1.390625q-0.796875 0.5 -1.84375 0.5q-1.5625 0 -2.546875 -1.09375q-0.96875 -1.09375 -0.96875 -2.890625l0 -0.09375zm1.328125 0.15625q0 1.28125 0.59375 2.0625q0.59375 0.78125 1.59375 0.78125q1.015625 0 1.609375 -0.78125q0.59375 -0.796875 0.59375 -2.21875q0 -1.28125 -0.609375 -2.0625q-0.59375 -0.796875 -1.59375 -0.796875q-0.984375 0 -1.59375 0.78125q-0.59375 0.78125 -0.59375 2.234375zm8.624268 -3.96875l0.046875 0.984375q0.890625 -1.125 2.3125 -1.125q2.46875 0 2.484375 2.78125l0 5.109375l-1.328125 0l0 -5.125q0 -0.84375 -0.375 -1.234375q-0.375 -0.40625 -1.171875 -0.40625q-0.640625 0 -1.140625 0.34375q-0.484375 0.34375 -0.75 0.90625l0 5.515625l-1.328125 0l0 -7.75l1.25 0z" fill-rule="nonzero"/><path fill="#000000" d="m26.854269 206.94917q0 -1.609375 0.421875 -3.09375q0.4375 -1.5 1.296875 -2.703125q0.859375 -1.21875 1.78125 -1.734375l0.28125 0.875q-1.046875 0.8125 -1.71875 2.453125q-0.671875 1.640625 -0.734375 3.6875l0 0.609375q0 2.765625 1.0 4.796875q0.609375 1.21875 1.453125 1.90625l-0.28125 0.796875q-0.953125 -0.53125 -1.8125 -1.765625q-1.6875 -2.4375 -1.6875 -5.828125zm8.165712 3.296875q0.703125 0 1.234375 -0.421875q0.53125 -0.4375 0.59375 -1.078125l1.25 0q-0.03125 0.65625 -0.453125 1.265625q-0.421875 0.59375 -1.140625 0.953125q-0.703125 0.359375 -1.484375 0.359375q-1.578125 0 -2.515625 -1.046875q-0.9375019 -1.0625 -0.9375019 -2.890625l0 -0.21875q0 -1.140625 0.40625 -2.015625q0.4218769 -0.875 1.2031269 -1.359375q0.78125 -0.5 1.828125 -0.5q1.3125 0 2.171875 0.78125q0.859375 0.78125 0.921875 2.03125l-1.25 0q-0.0625 -0.75 -0.578125 -1.234375q-0.5 -0.484375 -1.265625 -0.484375q-1.0 0 -1.5625 0.734375q-0.546875 0.71875 -0.546875 2.09375l0 0.25q0 1.328125 0.546875 2.0625q0.546875 0.71875 1.578125 0.71875zm4.218506 -3.0q0 -1.140625 0.4375 -2.046875q0.453125 -0.921875 1.25 -1.40625q0.796875 -0.5 1.828125 -0.5q1.578125 0 2.546875 1.09375q0.984375 1.09375 0.984375 2.921875l0 0.09375q0 1.125 -0.4375 2.03125q-0.4375 0.890625 -1.25 1.390625q-0.796875 0.5 -1.84375 0.5q-1.5625 0 -2.546875 -1.09375q-0.96875 -1.09375 -0.96875 -2.890625l0 -0.09375zm1.328125 0.15625q0 1.28125 0.59375 2.0625q0.59375 0.78125 1.59375 0.78125q1.015625 0 1.609375 -0.78125q0.59375 -0.796875 0.59375 -2.21875q0 -1.28125 -0.609375 -2.0625q-0.59375 -0.796875 -1.59375 -0.796875q-0.984375 0 -1.59375 0.78125q-0.59375 0.78125 -0.59375 2.234375zm8.624268 -3.96875l0.046875 0.984375q0.890625 -1.125 2.3125 -1.125q2.46875 0 2.484375 2.78125l0 5.109375l-1.328125 0l0 -5.125q0 -0.84375 -0.375 -1.234375q-0.375 -0.40625 -1.171875 -0.40625q-0.640625 0 -1.140625 0.34375q-0.484375 0.34375 -0.75 0.90625l0 5.515625l-1.328125 0l0 -7.75l1.25 0zm8.633575 -1.875l0 1.875l1.453125 0l0 1.03125l-1.453125 0l0 4.796875q0 0.46875 0.1875 0.703125q0.203125 0.234375 0.671875 0.234375q0.21875 0 0.625 -0.09375l0 1.078125q-0.53125 0.140625 -1.015625 0.140625q-0.890625 0 -1.34375 -0.53125q-0.453125 -0.546875 -0.453125 -1.53125l0 -4.796875l-1.40625 0l0 -1.03125l1.40625 0l0 -1.875l1.328125 0zm7.771988 9.625q-0.109375 -0.234375 -0.1875 -0.8125q-0.921875 0.953125 -2.203125 0.953125q-1.140625 0 -1.875 -0.640625q-0.734375 -0.65625 -0.734375 -1.640625q0 -1.21875 0.921875 -1.875q0.921875 -0.671875 2.578125 -0.671875l1.296875 0l0 -0.609375q0 -0.703125 -0.421875 -1.109375q-0.40625 -0.40625 -1.21875 -0.40625q-0.703125 0 -1.1875 0.359375q-0.484375 0.34375 -0.484375 0.859375l-1.328125 0q0 -0.578125 0.40625 -1.109375q0.421875 -0.546875 1.125 -0.859375q0.703125 -0.328125 1.546875 -0.328125q1.34375 0 2.09375 0.671875q0.765625 0.671875 0.796875 1.84375l0 3.5625q0 1.0625 0.265625 1.703125l0 0.109375l-1.390625 0zm-2.203125 -1.015625q0.625 0 1.1875 -0.3125q0.5625 -0.328125 0.8125 -0.84375l0 -1.578125l-1.046875 0q-2.421875 0 -2.421875 1.421875q0 0.625 0.40625 0.96875q0.421875 0.34375 1.0625 0.34375zm6.8315735 1.015625l-1.328125 0l0 -7.75l1.328125 0l0 7.75zm-1.421875 -9.796875q0 -0.328125 0.1875 -0.546875q0.203125 -0.21875 0.578125 -0.21875q0.390625 0 0.59375 0.21875q0.203125 0.21875 0.203125 0.546875q0 0.328125 -0.203125 0.546875q-0.203125 0.203125 -0.59375 0.203125q-0.375 0 -0.578125 -0.203125q-0.1875 -0.21875 -0.1875 -0.546875zm4.791092 2.046875l0.046875 0.984375q0.890625 -1.125 2.3125 -1.125q2.46875 0 2.484375 2.78125l0 5.109375l-1.328125 0l0 -5.125q0 -0.84375 -0.375 -1.234375q-0.375 -0.40625 -1.171875 -0.40625q-0.640625 0 -1.140625 0.34375q-0.484375 0.34375 -0.75 0.90625l0 5.515625l-1.328125 0l0 -7.75l1.25 0zm10.05545 7.890625q-1.578125 0 -2.5625 -1.03125q-0.984375 -1.03125 -0.984375 -2.765625l0 -0.25q0 -1.140625 0.4375 -2.046875q0.4375 -0.90625 1.21875 -1.421875q0.796875 -0.515625 1.71875 -0.515625q1.515625 0 2.34375 1.0q0.84375 1.0 0.84375 2.84375l0 0.546875l-5.25 0q0.03125 1.15625 0.671875 1.859375q0.640625 0.703125 1.625 0.703125q0.703125 0 1.1875 -0.28125q0.5 -0.296875 0.859375 -0.765625l0.8125 0.625q-0.984375 1.5 -2.921875 1.5zm-0.171875 -6.9375q-0.796875 0 -1.34375 0.59375q-0.546875 0.578125 -0.671875 1.625l3.875 0l0 -0.109375q-0.046875 -1.0 -0.546875 -1.546875q-0.484375 -0.5625 -1.3125 -0.5625zm8.467789 0.234375q-0.3125 -0.046875 -0.65625 -0.046875q-1.296875 0 -1.765625 1.109375l0 5.5l-1.328125 0l0 -7.75l1.296875 0l0.015625 0.90625q0.65625 -1.046875 1.84375 -1.046875q0.390625 0 0.59375 0.109375l0 1.21875zm9.3532715 4.515625q0 -0.546875 -0.40625 -0.84375q-0.40625 -0.296875 -1.421875 -0.5q-1.0 -0.21875 -1.59375 -0.515625q-0.578125 -0.3125 -0.875 -0.71875q-0.28125 -0.421875 -0.28125 -1.0q0 -0.9375 0.8125 -1.59375q0.8125 -0.671875 2.0625 -0.671875q1.3125 0 2.125 0.6875q0.828125 0.671875 0.828125 1.734375l-1.328125 0q0 -0.546875 -0.46875 -0.9375q-0.453125 -0.390625 -1.15625 -0.390625q-0.734375 0 -1.140625 0.3125q-0.40625 0.3125 -0.40625 0.828125q0 0.46875 0.375 0.71875q0.390625 0.25 1.375 0.46875q1.0 0.21875 1.609375 0.53125q0.609375 0.296875 0.90625 0.734375q0.296875 0.4375 0.296875 1.0625q0 1.03125 -0.828125 1.65625q-0.828125 0.625 -2.15625 0.625q-0.921875 0 -1.640625 -0.328125q-0.71875 -0.328125 -1.125 -0.921875q-0.390625 -0.59375 -0.390625 -1.28125l1.3125 0q0.046875 0.671875 0.53125 1.0625q0.5 0.390625 1.3125 0.390625q0.75 0 1.203125 -0.296875q0.46875 -0.3125 0.46875 -0.8125zm6.150879 1.109375q0.703125 0 1.234375 -0.421875q0.53125 -0.4375 0.59375 -1.078125l1.25 0q-0.03125 0.65625 -0.453125 1.265625q-0.421875 0.59375 -1.140625 0.953125q-0.703125 0.359375 -1.484375 0.359375q-1.578125 0 -2.515625 -1.046875q-0.9375 -1.0625 -0.9375 -2.890625l0 -0.21875q0 -1.140625 0.40625 -2.015625q0.421875 -0.875 1.203125 -1.359375q0.78125 -0.5 1.828125 -0.5q1.3125 0 2.171875 0.78125q0.859375 0.78125 0.921875 2.03125l-1.25 0q-0.0625 -0.75 -0.578125 -1.234375q-0.5 -0.484375 -1.265625 -0.484375q-1.0 0 -1.5625 0.734375q-0.546875 0.71875 -0.546875 2.09375l0 0.25q0 1.328125 0.546875 2.0625q0.546875 0.71875 1.578125 0.71875zm4.218506 -3.0q0 -1.140625 0.4375 -2.046875q0.453125 -0.921875 1.25 -1.40625q0.796875 -0.5 1.828125 -0.5q1.578125 0 2.546875 1.09375q0.984375 1.09375 0.984375 2.921875l0 0.09375q0 1.125 -0.4375 2.03125q-0.4375 0.890625 -1.25 1.390625q-0.796875 0.5 -1.84375 0.5q-1.5625 0 -2.546875 -1.09375q-0.96875 -1.09375 -0.96875 -2.890625l0 -0.09375zm1.328125 0.15625q0 1.28125 0.59375 2.0625q0.59375 0.78125 1.59375 0.78125q1.015625 0 1.609375 -0.78125q0.59375 -0.796875 0.59375 -2.21875q0 -1.28125 -0.609375 -2.0625q-0.59375 -0.796875 -1.59375 -0.796875q-0.984375 0 -1.59375 0.78125q-0.59375 0.78125 -0.59375 2.234375zm13.921143 0q0 1.765625 -0.8125 2.84375q-0.8125 1.078125 -2.1875 1.078125q-1.40625 0 -2.21875 -0.890625l0 3.734375l-1.328125 0l0 -10.734375l1.21875 0l0.0625 0.859375q0.796875 -1.0 2.234375 -1.0q1.40625 0 2.21875 1.0625q0.8125 1.046875 0.8125 2.921875l0 0.125zm-1.328125 -0.15625q0 -1.3125 -0.5625 -2.0625q-0.546875 -0.765625 -1.53125 -0.765625q-1.203125 0 -1.796875 1.0625l0 3.703125q0.59375 1.0625 1.8125 1.0625q0.953125 0 1.515625 -0.75q0.5625 -0.765625 0.5625 -2.25zm6.222664 4.078125q-1.578125 0 -2.5625 -1.03125q-0.984375 -1.03125 -0.984375 -2.765625l0 -0.25q0 -1.140625 0.4375 -2.046875q0.4375 -0.90625 1.21875 -1.421875q0.796875 -0.515625 1.71875 -0.515625q1.515625 0 2.34375 1.0q0.84375 1.0 0.84375 2.84375l0 0.546875l-5.25 0q0.03125 1.15625 0.671875 1.859375q0.640625 0.703125 1.625 0.703125q0.703125 0 1.1875 -0.28125q0.5 -0.296875 0.859375 -0.765625l0.8125 0.625q-0.984375 1.5 -2.921875 1.5zm-0.171875 -6.9375q-0.796875 0 -1.34375 0.59375q-0.546875 0.578125 -0.671875 1.625l3.875 0l0 -0.109375q-0.046875 -1.0 -0.546875 -1.546875q-0.484375 -0.5625 -1.3125 -0.5625zm7.780304 2.640625q0 1.59375 -0.421875 3.0625q-0.421875 1.453125 -1.28125 2.6875q-0.859375 1.25 -1.8125153 1.765625l-0.28125 -0.796875q1.1093903 -0.859375 1.7812653 -2.625q0.671875 -1.78125 0.6875 -3.953125l0 -0.234375q0 -1.5 -0.328125 -2.78125q-0.3125 -1.296875 -0.875 -2.3125q-0.5625 -1.03125 -1.2656403 -1.609375l0.28125 -0.8125q0.95314026 0.53125 1.7968903 1.765625q0.859375 1.21875 1.28125 2.6875q0.4375 1.46875 0.4375 3.15625z" fill-rule="nonzero"/><path fill="#f1f1f1" d="m217.55621 265.46844l0 0c0 -4.308197 3.4924927 -7.8006897 7.8006897 -7.8006897l138.69785 0c2.0688782 0 4.053009 0.8218689 5.51593 2.28479c1.4628906 1.4628906 2.2847595 3.4470215 2.2847595 5.5158997l0 31.201782c0 4.308197 -3.4924927 7.8006897 -7.8006897 7.8006897l-138.69785 0c-4.308197 0 -7.8006897 -3.4924927 -7.8006897 -7.8006897z" fill-rule="evenodd"/><path stroke="#848484" stroke-width="1.0" stroke-linejoin="round" stroke-linecap="butt" d="m217.55621 265.46844l0 0c0 -4.308197 3.4924927 -7.8006897 7.8006897 -7.8006897l138.69785 0c2.0688782 0 4.053009 0.8218689 5.51593 2.28479c1.4628906 1.4628906 2.2847595 3.4470215 2.2847595 5.5158997l0 31.201782c0 4.308197 -3.4924927 7.8006897 -7.8006897 7.8006897l-138.69785 0c-4.308197 0 -7.8006897 -3.4924927 -7.8006897 -7.8006897z" fill-rule="evenodd"/><path fill="#000000" d="m237.26366 283.4306l-4.375 0l-0.96875 2.71875l-1.421875 0l3.96875 -10.421875l1.203125 0l4.0 10.421875l-1.421875 0l-0.984375 -2.71875zm-3.953125 -1.125l3.546875 0l-1.78125 -4.875l-1.765625 4.875zm14.092163 0.0625q0 1.765625 -0.8125 2.84375q-0.8125 1.078125 -2.1875 1.078125q-1.40625 0 -2.21875 -0.890625l0 3.734375l-1.328125 0l0 -10.734375l1.21875 0l0.0625 0.859375q0.796875 -1.0 2.234375 -1.0q1.40625 0 2.21875 1.0625q0.8125 1.046875 0.8125 2.921875l0 0.125zm-1.328125 -0.15625q0 -1.3125 -0.5625 -2.0625q-0.546875 -0.765625 -1.53125 -0.765625q-1.203125 0 -1.796875 1.0625l0 3.703125q0.59375 1.0625 1.8125 1.0625q0.953125 0 1.515625 -0.75q0.5625 -0.765625 0.5625 -2.25zm9.5507965 0.15625q0 1.765625 -0.8125 2.84375q-0.8125 1.078125 -2.1875 1.078125q-1.40625 0 -2.21875 -0.890625l0 3.734375l-1.328125 0l0 -10.734375l1.21875 0l0.0625 0.859375q0.796875 -1.0 2.234375 -1.0q1.40625 0 2.21875 1.0625q0.8125 1.046875 0.8125 2.921875l0 0.125zm-1.328125 -0.15625q0 -1.3125 -0.5625 -2.0625q-0.546875 -0.765625 -1.53125 -0.765625q-1.203125 0 -1.796875 1.0625l0 3.703125q0.59375 1.0625 1.8125 1.0625q0.953125 0 1.515625 -0.75q0.5625 -0.765625 0.5625 -2.25zm4.4414062 3.9375l-1.328125 0l0 -11.0l1.328125 0l0 11.0zm3.5567322 0l-1.328125 0l0 -7.75l1.328125 0l0 7.75zm-1.421875 -9.796875q0 -0.328125 0.1875 -0.546875q0.203125 -0.21875 0.578125 -0.21875q0.390625 0 0.59375 0.21875q0.203125 0.21875 0.203125 0.546875q0 0.328125 -0.203125 0.546875q-0.203125 0.203125 -0.59375 0.203125q-0.375 0 -0.578125 -0.203125q-0.1875 -0.21875 -0.1875 -0.546875zm6.6504517 8.859375q0.703125 0 1.234375 -0.421875q0.53125 -0.4375 0.59375 -1.078125l1.25 0q-0.03125 0.65625 -0.453125 1.265625q-0.421875 0.59375 -1.140625 0.953125q-0.703125 0.359375 -1.484375 0.359375q-1.578125 0 -2.515625 -1.046875q-0.9375 -1.0625 -0.9375 -2.890625l0 -0.21875q0 -1.140625 0.40625 -2.015625q0.421875 -0.875 1.203125 -1.359375q0.78125 -0.5 1.828125 -0.5q1.3125 0 2.171875 0.78125q0.859375 0.78125 0.921875 2.03125l-1.25 0q-0.0625 -0.75 -0.578125 -1.234375q-0.5 -0.484375 -1.265625 -0.484375q-1.0 0 -1.5625 0.734375q-0.546875 0.71875 -0.546875 2.09375l0 0.25q0 1.328125 0.546875 2.0625q0.546875 0.71875 1.578125 0.71875zm9.343506 0.9375q-0.109375 -0.234375 -0.1875 -0.8125q-0.921875 0.953125 -2.203125 0.953125q-1.140625 0 -1.875 -0.640625q-0.734375 -0.65625 -0.734375 -1.640625q0 -1.21875 0.921875 -1.875q0.921875 -0.671875 2.578125 -0.671875l1.296875 0l0 -0.609375q0 -0.703125 -0.421875 -1.109375q-0.40625 -0.40625 -1.21875 -0.40625q-0.703125 0 -1.1875 0.359375q-0.484375 0.34375 -0.484375 0.859375l-1.328125 0q0 -0.578125 0.40625 -1.109375q0.421875 -0.546875 1.125 -0.859375q0.703125 -0.328125 1.546875 -0.328125q1.34375 0 2.09375 0.671875q0.765625 0.671875 0.796875 1.84375l0 3.5625q0 1.0625 0.265625 1.703125l0 0.109375l-1.390625 0zm-2.203125 -1.015625q0.625 0 1.1875 -0.3125q0.5625 -0.328125 0.8125 -0.84375l0 -1.578125l-1.046875 0q-2.421875 0 -2.421875 1.421875q0 0.625 0.40625 0.96875q0.421875 0.34375 1.0625 0.34375zm7.1909485 -8.609375l0 1.875l1.453125 0l0 1.03125l-1.453125 0l0 4.796875q0 0.46875 0.1875 0.703125q0.203125 0.234375 0.671875 0.234375q0.21875 0 0.625 -0.09375l0 1.078125q-0.53125 0.140625 -1.015625 0.140625q-0.890625 0 -1.34375 -0.53125q-0.453125 -0.546875 -0.453125 -1.53125l0 -4.796875l-1.40625 0l0 -1.03125l1.40625 0l0 -1.875l1.328125 0zm4.428253 9.625l-1.328125 0l0 -7.75l1.328125 0l0 7.75zm-1.421875 -9.796875q0 -0.328125 0.1875 -0.546875q0.203125 -0.21875 0.578125 -0.21875q0.390625 0 0.59375 0.21875q0.203125 0.21875 0.203125 0.546875q0 0.328125 -0.203125 0.546875q-0.203125 0.203125 -0.59375 0.203125q-0.375 0 -0.578125 -0.203125q-0.1875 -0.21875 -0.1875 -0.546875zm3.1973267 5.859375q0 -1.140625 0.4375 -2.046875q0.453125 -0.921875 1.25 -1.40625q0.796875 -0.5 1.828125 -0.5q1.578125 0 2.546875 1.09375q0.984375 1.09375 0.984375 2.921875l0 0.09375q0 1.125 -0.4375 2.03125q-0.4375 0.890625 -1.25 1.390625q-0.796875 0.5 -1.84375 0.5q-1.5625 0 -2.546875 -1.09375q-0.96875 -1.09375 -0.96875 -2.890625l0 -0.09375zm1.328125 0.15625q0 1.28125 0.59375 2.0625q0.59375 0.78125 1.59375 0.78125q1.015625 0 1.609375 -0.78125q0.59375 -0.796875 0.59375 -2.21875q0 -1.28125 -0.609375 -2.0625q-0.59375 -0.796875 -1.59375 -0.796875q-0.984375 0 -1.59375 0.78125q-0.59375 0.78125 -0.59375 2.234375zm8.624268 -3.96875l0.046875 0.984375q0.890625 -1.125 2.3125 -1.125q2.46875 0 2.484375 2.78125l0 5.109375l-1.328125 0l0 -5.125q0 -0.84375 -0.375 -1.234375q-0.375 -0.40625 -1.171875 -0.40625q-0.640625 0 -1.140625 0.34375q-0.484375 0.34375 -0.75 0.90625l0 5.515625l-1.328125 0l0 -7.75l1.25 0zm13.058746 2.828125l1.71875 -2.828125l1.546875 0l-2.53125 3.828125l2.609375 3.921875l-1.53125 0l-1.78125 -2.890625l-1.796875 2.890625l-1.53125 0l2.609375 -3.921875l-2.53125 -3.828125l1.53125 0l1.6875 2.828125zm9.876373 0.84375l0 4.078125l-1.375 0l0 -10.421875l3.84375 0q1.71875 0 2.6875 0.875q0.96875 0.875 0.96875 2.3125q0 1.515625 -0.953125 2.34375q-0.9375 0.8125 -2.71875 0.8125l-2.453125 0zm0 -1.125l2.46875 0q1.109375 0 1.6875 -0.515625q0.59375 -0.515625 0.59375 -1.5q0 -0.9375 -0.59375 -1.484375q-0.578125 -0.5625 -1.609375 -0.578125l-2.546875 0l0 4.078125zm9.105408 5.203125l-1.328125 0l0 -11.0l1.328125 0l0 11.0zm6.9004517 -0.765625q-0.765625 0.90625 -2.265625 0.90625q-1.234375 0 -1.890625 -0.71875q-0.640625 -0.71875 -0.65625 -2.125l0 -5.046875l1.328125 0l0 5.015625q0 1.75 1.4375 1.75q1.515625 0 2.015625 -1.125l0 -5.640625l1.328125 0l0 7.75l-1.265625 0l-0.03125 -0.765625zm2.9858093 -3.171875q0 -1.8125 0.828125 -2.875q0.84375 -1.078125 2.234375 -1.078125q1.40625 0 2.203125 1.0l0.0625 -0.859375l1.21875 0l0 7.5625q0 1.5 -0.890625 2.359375q-0.890625 0.875 -2.40625 0.875q-0.828125 0 -1.640625 -0.359375q-0.796875 -0.359375 -1.21875 -0.984375l0.6875 -0.78125q0.859375 1.046875 2.078125 1.046875q0.96875 0 1.5 -0.546875q0.546875 -0.546875 0.546875 -1.53125l0 -0.65625q-0.78125 0.90625 -2.15625 0.90625q-1.359375 0 -2.203125 -1.09375q-0.84375 -1.09375 -0.84375 -2.984375zm1.328125 0.15625q0 1.3125 0.53125 2.0625q0.546875 0.734375 1.515625 0.734375q1.25 0 1.828125 -1.140625l0 -3.53125q-0.609375 -1.109375 -1.8125 -1.109375q-0.96875 0 -1.515625 0.75q-0.546875 0.75 -0.546875 2.234375zm8.644562 3.78125l-1.328125 0l0 -7.75l1.328125 0l0 7.75zm-1.421875 -9.796875q0 -0.328125 0.1875 -0.546875q0.203125 -0.21875 0.578125 -0.21875q0.390625 0 0.59375 0.21875q0.203125 0.21875 0.203125 0.546875q0 0.328125 -0.203125 0.546875q-0.203125 0.203125 -0.59375 0.203125q-0.375 0 -0.578125 -0.203125q-0.1875 -0.21875 -0.1875 -0.546875zm4.7910767 2.046875l0.046875 0.984375q0.890625 -1.125 2.3125 -1.125q2.46875 0 2.484375 2.78125l0 5.109375l-1.328125 0l0 -5.125q0 -0.84375 -0.375 -1.234375q-0.375 -0.40625 -1.171875 -0.40625q-0.640625 0 -1.140625 0.34375q-0.484375 0.34375 -0.75 0.90625l0 5.515625l-1.328125 0l0 -7.75l1.25 0z" fill-rule="nonzero"/><path fill="#f1f1f1" d="m217.55621 433.43668l0 0c0 -4.308197 3.4924927 -7.8006897 7.8006897 -7.8006897l138.69785 0c2.0688782 0 4.053009 0.8218384 5.51593 2.2847595c1.4628906 1.4629211 2.2847595 3.447052 2.2847595 5.51593l0 31.201782c0 4.308197 -3.4924927 7.8006897 -7.8006897 7.8006897l-138.69785 0c-4.308197 0 -7.8006897 -3.4924927 -7.8006897 -7.8006897z" fill-rule="evenodd"/><path stroke="#848484" stroke-width="1.0" stroke-linejoin="round" stroke-linecap="butt" d="m217.55621 433.43668l0 0c0 -4.308197 3.4924927 -7.8006897 7.8006897 -7.8006897l138.69785 0c2.0688782 0 4.053009 0.8218384 5.51593 2.2847595c1.4628906 1.4629211 2.2847595 3.447052 2.2847595 5.51593l0 31.201782c0 4.308197 -3.4924927 7.8006897 -7.8006897 7.8006897l-138.69785 0c-4.308197 0 -7.8006897 -3.4924927 -7.8006897 -7.8006897z" fill-rule="evenodd"/><path fill="#000000" d="m246.57753 450.03943l0 4.078125l-1.375 0l0 -10.421875l3.84375 0q1.71875 0 2.6875 0.875q0.96875 0.875 0.96875 2.3125q0 1.515625 -0.953125 2.34375q-0.9375 0.8125 -2.71875 0.8125l-2.453125 0zm0 -1.125l2.46875 0q1.109375 0 1.6875 -0.515625q0.59375 -0.515625 0.59375 -1.5q0 -0.9375 -0.59375 -1.484375q-0.578125 -0.5625 -1.609375 -0.578125l-2.546875 0l0 4.078125zm11.417923 -1.359375q-0.3125 -0.046875 -0.65625 -0.046875q-1.296875 0 -1.7656403 1.109375l0 5.5l-1.328125 0l0 -7.75l1.296875 0l0.015625 0.90625q0.65626526 -1.046875 1.8437653 -1.046875q0.390625 0 0.59375 0.109375l0 1.21875zm0.7223816 2.625q0 -1.140625 0.4375 -2.046875q0.453125 -0.921875 1.25 -1.40625q0.796875 -0.5 1.828125 -0.5q1.578125 0 2.546875 1.09375q0.984375 1.09375 0.984375 2.921875l0 0.09375q0 1.125 -0.4375 2.03125q-0.4375 0.890625 -1.25 1.390625q-0.796875 0.5 -1.84375 0.5q-1.5625 0 -2.546875 -1.09375q-0.96875 -1.09375 -0.96875 -2.890625l0 -0.09375zm1.328125 0.15625q0 1.28125 0.59375 2.0625q0.59375 0.78125 1.59375 0.78125q1.015625 0 1.609375 -0.78125q0.59375 -0.796875 0.59375 -2.21875q0 -1.28125 -0.609375 -2.0625q-0.59375 -0.796875 -1.59375 -0.796875q-0.984375 0 -1.59375 0.78125q-0.59375 0.78125 -0.59375 2.234375zm8.749268 -3.96875l0 8.640625q0 2.234375 -2.03125 2.234375q-0.4375 0 -0.8125 -0.125l0 -1.0625q0.234375 0.0625 0.609375 0.0625q0.4375 0 0.671875 -0.25q0.234375 -0.234375 0.234375 -0.828125l0 -8.671875l1.328125 0zm-1.46875 -2.046875q0 -0.3125 0.1875 -0.53125q0.203125 -0.234375 0.59375 -0.234375q0.375 0 0.578125 0.21875q0.203125 0.21875 0.203125 0.546875q0 0.328125 -0.203125 0.546875q-0.203125 0.203125 -0.59375 0.203125q-0.375 0 -0.578125 -0.203125q-0.1875 -0.21875 -0.1875 -0.546875zm6.8119507 9.9375q-1.578125 0 -2.5625 -1.03125q-0.984375 -1.03125 -0.984375 -2.765625l0 -0.25q0 -1.140625 0.4375 -2.046875q0.4375 -0.90625 1.21875 -1.421875q0.796875 -0.515625 1.71875 -0.515625q1.515625 0 2.34375 1.0q0.84375 1.0 0.84375 2.84375l0 0.546875l-5.25 0q0.03125 1.15625 0.671875 1.859375q0.640625 0.703125 1.625 0.703125q0.703125 0 1.1875 -0.28125q0.5 -0.296875 0.859375 -0.765625l0.8125 0.625q-0.984375 1.5 -2.921875 1.5zm-0.171875 -6.9375q-0.796875 0 -1.34375 0.59375q-0.546875 0.578125 -0.671875 1.625l3.875 0l0 -0.109375q-0.046875 -1.0 -0.546875 -1.546875q-0.484375 -0.5625 -1.3125 -0.5625zm7.827179 5.859375q0.703125 0 1.234375 -0.421875q0.53125 -0.4375 0.59375 -1.078125l1.25 0q-0.03125 0.65625 -0.453125 1.265625q-0.421875 0.59375 -1.140625 0.953125q-0.703125 0.359375 -1.484375 0.359375q-1.578125 0 -2.515625 -1.046875q-0.9375 -1.0625 -0.9375 -2.890625l0 -0.21875q0 -1.140625 0.40625 -2.015625q0.421875 -0.875 1.203125 -1.359375q0.78125 -0.5 1.828125 -0.5q1.3125 0 2.171875 0.78125q0.859375 0.78125 0.921875 2.03125l-1.25 0q-0.0625 -0.75 -0.578125 -1.234375q-0.5 -0.484375 -1.265625 -0.484375q-1.0 0 -1.5625 0.734375q-0.546875 0.71875 -0.546875 2.09375l0 0.25q0 1.328125 0.546875 2.0625q0.546875 0.71875 1.578125 0.71875zm6.359131 -8.6875l0 1.875l1.453125 0l0 1.03125l-1.453125 0l0 4.796875q0 0.46875 0.1875 0.703125q0.203125 0.234375 0.671875 0.234375q0.21875 0 0.625 -0.09375l0 1.078125q-0.53125 0.140625 -1.015625 0.140625q-0.890625 0 -1.34375 -0.53125q-0.453125 -0.546875 -0.453125 -1.53125l0 -4.796875l-1.40625 0l0 -1.03125l1.40625 0l0 -1.875l1.328125 0zm9.212769 4.703125l1.71875 -2.828125l1.546875 0l-2.53125 3.828125l2.609375 3.921875l-1.53125 0l-1.78125 -2.890625l-1.796875 2.890625l-1.53125 0l2.609375 -3.921875l-2.53125 -3.828125l1.53125 0l1.6875 2.828125zm9.876373 0.84375l0 4.078125l-1.375 0l0 -10.421875l3.84375 0q1.71875 0 2.6875 0.875q0.96875 0.875 0.96875 2.3125q0 1.515625 -0.953125 2.34375q-0.9375 0.8125 -2.71875 0.8125l-2.453125 0zm0 -1.125l2.46875 0q1.109375 0 1.6875 -0.515625q0.59375 -0.515625 0.59375 -1.5q0 -0.9375 -0.59375 -1.484375q-0.578125 -0.5625 -1.609375 -0.578125l-2.546875 0l0 4.078125zm9.105408 5.203125l-1.328125 0l0 -11.0l1.328125 0l0 11.0zm6.9004517 -0.765625q-0.765625 0.90625 -2.265625 0.90625q-1.234375 0 -1.890625 -0.71875q-0.640625 -0.71875 -0.65625 -2.125l0 -5.046875l1.328125 0l0 5.015625q0 1.75 1.4375 1.75q1.515625 0 2.015625 -1.125l0 -5.640625l1.328125 0l0 7.75l-1.265625 0l-0.03125 -0.765625zm2.9858093 -3.171875q0 -1.8125 0.828125 -2.875q0.84375 -1.078125 2.234375 -1.078125q1.40625 0 2.203125 1.0l0.0625 -0.859375l1.21875 0l0 7.5625q0 1.5 -0.890625 2.359375q-0.890625 0.875 -2.40625 0.875q-0.828125 0 -1.640625 -0.359375q-0.796875 -0.359375 -1.21875 -0.984375l0.6875 -0.78125q0.859375 1.046875 2.078125 1.046875q0.96875 0 1.5 -0.546875q0.546875 -0.546875 0.546875 -1.53125l0 -0.65625q-0.78125 0.90625 -2.15625 0.90625q-1.359375 0 -2.203125 -1.09375q-0.84375 -1.09375 -0.84375 -2.984375zm1.328125 0.15625q0 1.3125 0.53125 2.0625q0.546875 0.734375 1.515625 0.734375q1.25 0 1.828125 -1.140625l0 -3.53125q-0.609375 -1.109375 -1.8125 -1.109375q-0.96875 0 -1.515625 0.75q-0.546875 0.75 -0.546875 2.234375zm8.644531 3.78125l-1.328125 0l0 -7.75l1.328125 0l0 7.75zm-1.421875 -9.796875q0 -0.328125 0.1875 -0.546875q0.203125 -0.21875 0.578125 -0.21875q0.390625 0 0.59375 0.21875q0.203125 0.21875 0.203125 0.546875q0 0.328125 -0.203125 0.546875q-0.203125 0.203125 -0.59375 0.203125q-0.375 0 -0.578125 -0.203125q-0.1875 -0.21875 -0.1875 -0.546875zm4.791107 2.046875l0.046875 0.984375q0.890625 -1.125 2.3125 -1.125q2.46875 0 2.484375 2.78125l0 5.109375l-1.328125 0l0 -5.125q0 -0.84375 -0.375 -1.234375q-0.375 -0.40625 -1.171875 -0.40625q-0.640625 0 -1.140625 0.34375q-0.484375 0.34375 -0.75 0.90625l0 5.515625l-1.328125 0l0 -7.75l1.25 0z" fill-rule="nonzero"/><path fill="#f1f1f1" d="m483.6729 342.29422l0 0c0 -4.308197 3.4924927 -7.800659 7.8006897 -7.800659l138.69785 0c2.0688477 0 4.0530396 0.8218384 5.51593 2.2847595c1.4628906 1.4629211 2.284729 3.447052 2.284729 5.5158997l0 31.201813c0 4.308197 -3.4924316 7.800659 -7.800659 7.800659l-138.69785 0c-4.308197 0 -7.8006897 -3.4924622 -7.8006897 -7.800659z" fill-rule="evenodd"/><path stroke="#848484" stroke-width="1.0" stroke-linejoin="round" stroke-linecap="butt" d="m483.6729 342.29422l0 0c0 -4.308197 3.4924927 -7.800659 7.8006897 -7.800659l138.69785 0c2.0688477 0 4.0530396 0.8218384 5.51593 2.2847595c1.4628906 1.4629211 2.284729 3.447052 2.284729 5.5158997l0 31.201813c0 4.308197 -3.4924316 7.800659 -7.800659 7.800659l-138.69785 0c-4.308197 0 -7.8006897 -3.4924622 -7.8006897 -7.800659z" fill-rule="evenodd"/><path fill="#000000" d="m520.41254 351.25638l-4.375 0l-0.96875 2.71875l-1.421875 0l3.96875 -10.421875l1.203125 0l4.0 10.421875l-1.421875 0l-0.984375 -2.71875zm-3.953125 -1.125l3.546875 0l-1.78125 -4.875l-1.765625 4.875zm14.092163 0.0625q0 1.765625 -0.8125 2.84375q-0.8125 1.078125 -2.1875 1.078125q-1.40625 0 -2.21875 -0.890625l0 3.734375l-1.328125 0l0 -10.734375l1.21875 0l0.0625 0.859375q0.796875 -1.0 2.234375 -1.0q1.40625 0 2.21875 1.0625q0.8125 1.046875 0.8125 2.921875l0 0.125zm-1.328125 -0.15625q0 -1.3125 -0.5625 -2.0625q-0.546875 -0.765625 -1.53125 -0.765625q-1.203125 0 -1.796875 1.0625l0 3.703125q0.59375 1.0625 1.8125 1.0625q0.953125 0 1.515625 -0.75q0.5625 -0.765625 0.5625 -2.25zm9.550781 0.15625q0 1.765625 -0.8125 2.84375q-0.8125 1.078125 -2.1875 1.078125q-1.40625 0 -2.21875 -0.890625l0 3.734375l-1.328125 0l0 -10.734375l1.21875 0l0.0625 0.859375q0.796875 -1.0 2.234375 -1.0q1.40625 0 2.21875 1.0625q0.8125 1.046875 0.8125 2.921875l0 0.125zm-1.328125 -0.15625q0 -1.3125 -0.5625 -2.0625q-0.546875 -0.765625 -1.53125 -0.765625q-1.203125 0 -1.796875 1.0625l0 3.703125q0.59375 1.0625 1.8125 1.0625q0.953125 0 1.515625 -0.75q0.5625 -0.765625 0.5625 -2.25zm4.4414062 3.9375l-1.328125 0l0 -11.0l1.328125 0l0 11.0zm3.5567627 0l-1.328125 0l0 -7.75l1.328125 0l0 7.75zm-1.421875 -9.796875q0 -0.328125 0.1875 -0.546875q0.203125 -0.21875 0.578125 -0.21875q0.390625 0 0.59375 0.21875q0.203125 0.21875 0.203125 0.546875q0 0.328125 -0.203125 0.546875q-0.203125 0.203125 -0.59375 0.203125q-0.375 0 -0.578125 -0.203125q-0.1875 -0.21875 -0.1875 -0.546875zm6.6504517 8.859375q0.703125 0 1.234375 -0.421875q0.53125 -0.4375 0.59375 -1.078125l1.25 0q-0.03125 0.65625 -0.453125 1.265625q-0.421875 0.59375 -1.140625 0.953125q-0.703125 0.359375 -1.484375 0.359375q-1.578125 0 -2.515625 -1.046875q-0.9375 -1.0625 -0.9375 -2.890625l0 -0.21875q0 -1.140625 0.40625 -2.015625q0.421875 -0.875 1.203125 -1.359375q0.78125 -0.5 1.828125 -0.5q1.3125 0 2.171875 0.78125q0.859375 0.78125 0.921875 2.03125l-1.25 0q-0.0625 -0.75 -0.578125 -1.234375q-0.5 -0.484375 -1.265625 -0.484375q-1.0 0 -1.5625 0.734375q-0.546875 0.71875 -0.546875 2.09375l0 0.25q0 1.328125 0.546875 2.0625q0.546875 0.71875 1.578125 0.71875zm9.343506 0.9375q-0.109375 -0.234375 -0.1875 -0.8125q-0.921875 0.953125 -2.203125 0.953125q-1.140625 0 -1.875 -0.640625q-0.734375 -0.65625 -0.734375 -1.640625q0 -1.21875 0.921875 -1.875q0.921875 -0.671875 2.578125 -0.671875l1.296875 0l0 -0.609375q0 -0.703125 -0.421875 -1.109375q-0.40625 -0.40625 -1.21875 -0.40625q-0.703125 0 -1.1875 0.359375q-0.484375 0.34375 -0.484375 0.859375l-1.328125 0q0 -0.578125 0.40625 -1.109375q0.421875 -0.546875 1.125 -0.859375q0.703125 -0.328125 1.546875 -0.328125q1.34375 0 2.09375 0.671875q0.765625 0.671875 0.796875 1.84375l0 3.5625q0 1.0625 0.265625 1.703125l0 0.109375l-1.390625 0zm-2.203125 -1.015625q0.625 0 1.1875 -0.3125q0.5625 -0.328125 0.8125 -0.84375l0 -1.578125l-1.046875 0q-2.421875 0 -2.421875 1.421875q0 0.625 0.40625 0.96875q0.421875 0.34375 1.0625 0.34375zm7.190918 -8.609375l0 1.875l1.453125 0l0 1.03125l-1.453125 0l0 4.796875q0 0.46875 0.1875 0.703125q0.203125 0.234375 0.671875 0.234375q0.21875 0 0.625 -0.09375l0 1.078125q-0.53125 0.140625 -1.015625 0.140625q-0.890625 0 -1.34375 -0.53125q-0.453125 -0.546875 -0.453125 -1.53125l0 -4.796875l-1.40625 0l0 -1.03125l1.40625 0l0 -1.875l1.328125 0zm4.4282837 9.625l-1.328125 0l0 -7.75l1.328125 0l0 7.75zm-1.421875 -9.796875q0 -0.328125 0.1875 -0.546875q0.203125 -0.21875 0.578125 -0.21875q0.390625 0 0.59375 0.21875q0.203125 0.21875 0.203125 0.546875q0 0.328125 -0.203125 0.546875q-0.203125 0.203125 -0.59375 0.203125q-0.375 0 -0.578125 -0.203125q-0.1875 -0.21875 -0.1875 -0.546875zm3.1973267 5.859375q0 -1.140625 0.4375 -2.046875q0.453125 -0.921875 1.25 -1.40625q0.796875 -0.5 1.828125 -0.5q1.578125 0 2.546875 1.09375q0.984375 1.09375 0.984375 2.921875l0 0.09375q0 1.125 -0.4375 2.03125q-0.4375 0.890625 -1.25 1.390625q-0.796875 0.5 -1.84375 0.5q-1.5625 0 -2.546875 -1.09375q-0.96875 -1.09375 -0.96875 -2.890625l0 -0.09375zm1.328125 0.15625q0 1.28125 0.59375 2.0625q0.59375 0.78125 1.59375 0.78125q1.015625 0 1.609375 -0.78125q0.59375 -0.796875 0.59375 -2.21875q0 -1.28125 -0.609375 -2.0625q-0.59375 -0.796875 -1.59375 -0.796875q-0.984375 0 -1.59375 0.78125q-0.59375 0.78125 -0.59375 2.234375zm8.624268 -3.96875l0.046875 0.984375q0.890625 -1.125 2.3125 -1.125q2.46875 0 2.484375 2.78125l0 5.109375l-1.328125 0l0 -5.125q0 -0.84375 -0.375 -1.234375q-0.375 -0.40625 -1.171875 -0.40625q-0.640625 0 -1.140625 0.34375q-0.484375 0.34375 -0.75 0.90625l0 5.515625l-1.328125 0l0 -7.75l1.25 0zm16.558716 2.9375l-4.515625 0l0 3.6875l5.25 0l0 1.125l-6.625 0l0 -10.421875l6.546875 0l0 1.140625l-5.171875 0l0 3.34375l4.515625 0l0 1.125zm3.814392 0.734375l0 4.078125l-1.375 0l0 -10.421875l3.84375 0q1.71875 0 2.6875 0.875q0.96875 0.875 0.96875 2.3125q0 1.515625 -0.953125 2.34375q-0.9375 0.8125 -2.71875 0.8125l-2.453125 0zm0 -1.125l2.46875 0q1.109375 0 1.6875 -0.515625q0.59375 -0.515625 0.59375 -1.5q0 -0.9375 -0.59375 -1.484375q-0.578125 -0.5625 -1.609375 -0.578125l-2.546875 0l0 4.078125z" fill-rule="nonzero"/><path fill="#000000" d="m529.5464 371.97513l-1.328125 0l0 -7.75l1.328125 0l0 7.75zm-1.421875 -9.796875q0 -0.328125 0.1875 -0.546875q0.203125 -0.21875 0.578125 -0.21875q0.390625 0 0.59375 0.21875q0.203125 0.21875 0.203125 0.546875q0 0.328125 -0.203125 0.546875q-0.203125 0.203125 -0.59375 0.203125q-0.375 0 -0.578125 -0.203125q-0.1875 -0.21875 -0.1875 -0.546875zm4.7911377 2.046875l0.046875 0.984375q0.890625 -1.125 2.3125 -1.125q2.46875 0 2.484375 2.78125l0 5.109375l-1.328125 0l0 -5.125q0 -0.84375 -0.375 -1.234375q-0.375 -0.40625 -1.171875 -0.40625q-0.640625 0 -1.140625 0.34375q-0.484375 0.34375 -0.75 0.90625l0 5.515625l-1.328125 0l0 -7.75l1.25 0zm9.39917 5.953125l1.90625 -5.953125l1.359375 0l-2.78125 7.75l-1.0 0l-2.8125 -7.75l1.359375 0l1.96875 5.953125zm4.085449 -2.140625q0 -1.140625 0.4375 -2.046875q0.453125 -0.921875 1.25 -1.40625q0.796875 -0.5 1.828125 -0.5q1.578125 0 2.546875 1.09375q0.984375 1.09375 0.984375 2.921875l0 0.09375q0 1.125 -0.4375 2.03125q-0.4375 0.890625 -1.25 1.390625q-0.796875 0.5 -1.84375 0.5q-1.5625 0 -2.546875 -1.09375q-0.96875 -1.09375 -0.96875 -2.890625l0 -0.09375zm1.328125 0.15625q0 1.28125 0.59375 2.0625q0.59375 0.78125 1.59375 0.78125q1.015625 0 1.609375 -0.78125q0.59375 -0.796875 0.59375 -2.21875q0 -1.28125 -0.609375 -2.0625q-0.59375 -0.796875 -1.59375 -0.796875q-0.984375 0 -1.59375 0.78125q-0.59375 0.78125 -0.59375 2.234375zm10.483643 2.84375q0.703125 0 1.234375 -0.421875q0.53125 -0.4375 0.59375 -1.078125l1.25 0q-0.03125 0.65625 -0.453125 1.265625q-0.421875 0.59375 -1.140625 0.953125q-0.703125 0.359375 -1.484375 0.359375q-1.578125 0 -2.515625 -1.046875q-0.9375 -1.0625 -0.9375 -2.890625l0 -0.21875q0 -1.140625 0.40625 -2.015625q0.421875 -0.875 1.203125 -1.359375q0.78125 -0.5 1.828125 -0.5q1.3125 0 2.171875 0.78125q0.859375 0.78125 0.921875 2.03125l-1.25 0q-0.0625 -0.75 -0.578125 -1.234375q-0.5 -0.484375 -1.265625 -0.484375q-1.0 0 -1.5625 0.734375q-0.546875 0.71875 -0.546875 2.09375l0 0.25q0 1.328125 0.546875 2.0625q0.546875 0.71875 1.578125 0.71875zm9.343506 0.9375q-0.109375 -0.234375 -0.1875 -0.8125q-0.921875 0.953125 -2.203125 0.953125q-1.140625 0 -1.875 -0.640625q-0.734375 -0.65625 -0.734375 -1.640625q0 -1.21875 0.921875 -1.875q0.921875 -0.671875 2.578125 -0.671875l1.296875 0l0 -0.609375q0 -0.703125 -0.421875 -1.109375q-0.40625 -0.40625 -1.21875 -0.40625q-0.703125 0 -1.1875 0.359375q-0.484375 0.34375 -0.484375 0.859375l-1.328125 0q0 -0.578125 0.40625 -1.109375q0.421875 -0.546875 1.125 -0.859375q0.703125 -0.328125 1.546875 -0.328125q1.34375 0 2.09375 0.671875q0.765625 0.671875 0.796875 1.84375l0 3.5625q0 1.0625 0.265625 1.703125l0 0.109375l-1.390625 0zm-2.203125 -1.015625q0.625 0 1.1875 -0.3125q0.5625 -0.328125 0.8125 -0.84375l0 -1.578125l-1.046875 0q-2.421875 0 -2.421875 1.421875q0 0.625 0.40625 0.96875q0.421875 0.34375 1.0625 0.34375zm7.190979 -8.609375l0 1.875l1.453125 0l0 1.03125l-1.453125 0l0 4.796875q0 0.46875 0.1875 0.703125q0.203125 0.234375 0.671875 0.234375q0.21875 0 0.625 -0.09375l0 1.078125q-0.53125 0.140625 -1.015625 0.140625q-0.890625 0 -1.34375 -0.53125q-0.453125 -0.546875 -0.453125 -1.53125l0 -4.796875l-1.40625 0l0 -1.03125l1.40625 0l0 -1.875l1.328125 0zm4.4282227 9.625l-1.328125 0l0 -7.75l1.328125 0l0 7.75zm-1.421875 -9.796875q0 -0.328125 0.1875 -0.546875q0.203125 -0.21875 0.578125 -0.21875q0.390625 0 0.59375 0.21875q0.203125 0.21875 0.203125 0.546875q0 0.328125 -0.203125 0.546875q-0.203125 0.203125 -0.59375 0.203125q-0.375 0 -0.578125 -0.203125q-0.1875 -0.21875 -0.1875 -0.546875zm3.1973267 5.859375q0 -1.140625 0.4375 -2.046875q0.453125 -0.921875 1.25 -1.40625q0.796875 -0.5 1.828125 -0.5q1.578125 0 2.546875 1.09375q0.984375 1.09375 0.984375 2.921875l0 0.09375q0 1.125 -0.4375 2.03125q-0.4375 0.890625 -1.25 1.390625q-0.796875 0.5 -1.84375 0.5q-1.5625 0 -2.546875 -1.09375q-0.96875 -1.09375 -0.96875 -2.890625l0 -0.09375zm1.328125 0.15625q0 1.28125 0.59375 2.0625q0.59375 0.78125 1.59375 0.78125q1.015625 0 1.609375 -0.78125q0.59375 -0.796875 0.59375 -2.21875q0 -1.28125 -0.609375 -2.0625q-0.59375 -0.796875 -1.59375 -0.796875q-0.984375 0 -1.59375 0.78125q-0.59375 0.78125 -0.59375 2.234375zm8.624268 -3.96875l0.046875 0.984375q0.890625 -1.125 2.3125 -1.125q2.46875 0 2.484375 2.78125l0 5.109375l-1.328125 0l0 -5.125q0 -0.84375 -0.375 -1.234375q-0.375 -0.40625 -1.171875 -0.40625q-0.640625 0 -1.140625 0.34375q-0.484375 0.34375 -0.75 0.90625l0 5.515625l-1.328125 0l0 -7.75l1.25 0z" fill-rule="nonzero"/><path fill="#f1f1f1" d="m307.96765 342.2931l0 0c0 -4.308197 3.4924927 -7.8006897 7.8006897 -7.8006897l138.69785 0c2.0688782 0 4.053009 0.8218689 5.51593 2.2847595c1.4628906 1.4629211 2.2847595 3.447052 2.2847595 5.51593l0 31.201782c0 4.308197 -3.4924927 7.8006897 -7.8006897 7.8006897l-138.69785 0c-4.308197 0 -7.8006897 -3.4924927 -7.8006897 -7.8006897z" fill-rule="evenodd"/><path stroke="#848484" stroke-width="1.0" stroke-linejoin="round" stroke-linecap="butt" d="m307.96765 342.2931l0 0c0 -4.308197 3.4924927 -7.8006897 7.8006897 -7.8006897l138.69785 0c2.0688782 0 4.053009 0.8218689 5.51593 2.2847595c1.4628906 1.4629211 2.2847595 3.447052 2.2847595 5.51593l0 31.201782c0 4.308197 -3.4924927 7.8006897 -7.8006897 7.8006897l-138.69785 0c-4.308197 0 -7.8006897 -3.4924927 -7.8006897 -7.8006897z" fill-rule="evenodd"/><path fill="#000000" d="m329.67526 360.25522l-4.375 0l-0.96875 2.71875l-1.421875 0l3.96875 -10.421875l1.203125 0l4.0 10.421875l-1.421875 0l-0.984375 -2.71875zm-3.953125 -1.125l3.546875 0l-1.78125 -4.875l-1.765625 4.875zm14.092163 0.0625q0 1.765625 -0.8125 2.84375q-0.8125 1.078125 -2.1875 1.078125q-1.40625 0 -2.21875 -0.890625l0 3.734375l-1.328125 0l0 -10.734375l1.21875 0l0.0625 0.859375q0.796875 -1.0 2.234375 -1.0q1.40625 0 2.21875 1.0625q0.8125 1.046875 0.8125 2.921875l0 0.125zm-1.328125 -0.15625q0 -1.3125 -0.5625 -2.0625q-0.546875 -0.765625 -1.53125 -0.765625q-1.203125 0 -1.796875 1.0625l0 3.703125q0.59375 1.0625 1.8125 1.0625q0.953125 0 1.515625 -0.75q0.5625 -0.765625 0.5625 -2.25zm9.550781 0.15625q0 1.765625 -0.8125 2.84375q-0.8125 1.078125 -2.1875 1.078125q-1.40625 0 -2.21875 -0.890625l0 3.734375l-1.328125 0l0 -10.734375l1.21875 0l0.0625 0.859375q0.796875 -1.0 2.234375 -1.0q1.40625 0 2.21875 1.0625q0.8125 1.046875 0.8125 2.921875l0 0.125zm-1.328125 -0.15625q0 -1.3125 -0.5625 -2.0625q-0.546875 -0.765625 -1.53125 -0.765625q-1.203125 0 -1.796875 1.0625l0 3.703125q0.59375 1.0625 1.8125 1.0625q0.953125 0 1.515625 -0.75q0.5625 -0.765625 0.5625 -2.25zm4.441437 3.9375l-1.328125 0l0 -11.0l1.328125 0l0 11.0zm3.5567017 0l-1.328125 0l0 -7.75l1.328125 0l0 7.75zm-1.421875 -9.796875q0 -0.328125 0.1875 -0.546875q0.203125 -0.21875 0.578125 -0.21875q0.390625 0 0.59375 0.21875q0.203125 0.21875 0.203125 0.546875q0 0.328125 -0.203125 0.546875q-0.203125 0.203125 -0.59375 0.203125q-0.375 0 -0.578125 -0.203125q-0.1875 -0.21875 -0.1875 -0.546875zm6.650482 8.859375q0.703125 0 1.234375 -0.421875q0.53125 -0.4375 0.59375 -1.078125l1.25 0q-0.03125 0.65625 -0.453125 1.265625q-0.421875 0.59375 -1.140625 0.953125q-0.703125 0.359375 -1.484375 0.359375q-1.578125 0 -2.515625 -1.046875q-0.9375 -1.0625 -0.9375 -2.890625l0 -0.21875q0 -1.140625 0.40625 -2.015625q0.421875 -0.875 1.203125 -1.359375q0.78125 -0.5 1.828125 -0.5q1.3125 0 2.171875 0.78125q0.859375 0.78125 0.921875 2.03125l-1.25 0q-0.0625 -0.75 -0.578125 -1.234375q-0.5 -0.484375 -1.265625 -0.484375q-1.0 0 -1.5625 0.734375q-0.546875 0.71875 -0.546875 2.09375l0 0.25q0 1.328125 0.546875 2.0625q0.546875 0.71875 1.578125 0.71875zm9.343506 0.9375q-0.109375 -0.234375 -0.1875 -0.8125q-0.921875 0.953125 -2.203125 0.953125q-1.140625 0 -1.875 -0.640625q-0.734375 -0.65625 -0.734375 -1.640625q0 -1.21875 0.921875 -1.875q0.921875 -0.671875 2.578125 -0.671875l1.296875 0l0 -0.609375q0 -0.703125 -0.421875 -1.109375q-0.40625 -0.40625 -1.21875 -0.40625q-0.703125 0 -1.1875 0.359375q-0.484375 0.34375 -0.484375 0.859375l-1.328125 0q0 -0.578125 0.40625 -1.109375q0.421875 -0.546875 1.125 -0.859375q0.703125 -0.328125 1.546875 -0.328125q1.34375 0 2.09375 0.671875q0.765625 0.671875 0.796875 1.84375l0 3.5625q0 1.0625 0.265625 1.703125l0 0.109375l-1.390625 0zm-2.203125 -1.015625q0.625 0 1.1875 -0.3125q0.5625 -0.328125 0.8125 -0.84375l0 -1.578125l-1.046875 0q-2.421875 0 -2.421875 1.421875q0 0.625 0.40625 0.96875q0.421875 0.34375 1.0625 0.34375zm7.1909485 -8.609375l0 1.875l1.453125 0l0 1.03125l-1.453125 0l0 4.796875q0 0.46875 0.1875 0.703125q0.203125 0.234375 0.671875 0.234375q0.21875 0 0.625 -0.09375l0 1.078125q-0.53125 0.140625 -1.015625 0.140625q-0.890625 0 -1.34375 -0.53125q-0.453125 -0.546875 -0.453125 -1.53125l0 -4.796875l-1.40625 0l0 -1.03125l1.40625 0l0 -1.875l1.328125 0zm4.4282227 9.625l-1.328125 0l0 -7.75l1.328125 0l0 7.75zm-1.421875 -9.796875q0 -0.328125 0.1875 -0.546875q0.203125 -0.21875 0.578125 -0.21875q0.390625 0 0.59375 0.21875q0.203125 0.21875 0.203125 0.546875q0 0.328125 -0.203125 0.546875q-0.203125 0.203125 -0.59375 0.203125q-0.375 0 -0.578125 -0.203125q-0.1875 -0.21875 -0.1875 -0.546875zm3.1973572 5.859375q0 -1.140625 0.4375 -2.046875q0.453125 -0.921875 1.25 -1.40625q0.796875 -0.5 1.828125 -0.5q1.578125 0 2.546875 1.09375q0.984375 1.09375 0.984375 2.921875l0 0.09375q0 1.125 -0.4375 2.03125q-0.4375 0.890625 -1.25 1.390625q-0.796875 0.5 -1.84375 0.5q-1.5625 0 -2.546875 -1.09375q-0.96875 -1.09375 -0.96875 -2.890625l0 -0.09375zm1.328125 0.15625q0 1.28125 0.59375 2.0625q0.59375 0.78125 1.59375 0.78125q1.015625 0 1.609375 -0.78125q0.59375 -0.796875 0.59375 -2.21875q0 -1.28125 -0.609375 -2.0625q-0.59375 -0.796875 -1.59375 -0.796875q-0.984375 0 -1.59375 0.78125q-0.59375 0.78125 -0.59375 2.234375zm8.624268 -3.96875l0.046875 0.984375q0.890625 -1.125 2.3125 -1.125q2.46875 0 2.484375 2.78125l0 5.109375l-1.328125 0l0 -5.125q0 -0.84375 -0.375 -1.234375q-0.375 -0.40625 -1.171875 -0.40625q-0.640625 0 -1.140625 0.34375q-0.484375 0.34375 -0.75 0.90625l0 5.515625l-1.328125 0l0 -7.75l1.25 0zm13.746216 3.109375q-1.765625 -0.515625 -2.578125 -1.25q-0.796875 -0.75 -0.796875 -1.828125q0 -1.234375 0.984375 -2.03125q0.984375 -0.8125 2.546875 -0.8125q1.078125 0 1.921875 0.421875q0.84375 0.40625 1.296875 1.140625q0.46875 0.734375 0.46875 1.59375l-1.390625 0q0 -0.9375 -0.609375 -1.484375q-0.59375 -0.546875 -1.6875 -0.546875q-1.015625 0 -1.578125 0.453125q-0.5625 0.453125 -0.5625 1.234375q0 0.640625 0.53125 1.09375q0.546875 0.4375 1.84375 0.796875q1.296875 0.359375 2.03125 0.8125q0.734375 0.4375 1.078125 1.03125q0.359375 0.578125 0.359375 1.375q0 1.265625 -0.984375 2.03125q-0.984375 0.75 -2.640625 0.75q-1.078125 0 -2.015625 -0.40625q-0.921875 -0.421875 -1.421875 -1.125q-0.5 -0.71875 -0.5 -1.625l1.375 0q0 0.9375 0.6875 1.484375q0.703125 0.546875 1.875 0.546875q1.09375 0 1.671875 -0.4375q0.578125 -0.453125 0.578125 -1.21875q0 -0.765625 -0.546875 -1.171875q-0.53125 -0.421875 -1.9375 -0.828125zm8.632507 4.78125q-1.578125 0 -2.5625 -1.03125q-0.984375 -1.03125 -0.984375 -2.765625l0 -0.25q0 -1.140625 0.4375 -2.046875q0.4375 -0.90625 1.21875 -1.421875q0.796875 -0.515625 1.71875 -0.515625q1.515625 0 2.34375 1.0q0.84375 1.0 0.84375 2.84375l0 0.546875l-5.25 0q0.03125 1.15625 0.671875 1.859375q0.640625 0.703125 1.625 0.703125q0.703125 0 1.1875 -0.28125q0.5 -0.296875 0.859375 -0.765625l0.8125 0.625q-0.984375 1.5 -2.921875 1.5zm-0.171875 -6.9375q-0.796875 0 -1.34375 0.59375q-0.546875 0.578125 -0.671875 1.625l3.875 0l0 -0.109375q-0.046875 -1.0 -0.546875 -1.546875q-0.484375 -0.5625 -1.3125 -0.5625zm8.467773 0.234375q-0.3125 -0.046875 -0.65625 -0.046875q-1.296875 0 -1.765625 1.109375l0 5.5l-1.328125 0l0 -7.75l1.296875 0l0.015625 0.90625q0.65625 -1.046875 1.84375 -1.046875q0.390625 0 0.59375 0.109375l0 1.21875zm3.9007874 4.765625l1.90625 -5.953125l1.359375 0l-2.78125 7.75l-1.0 0l-2.8125 -7.75l1.359375 0l1.96875 5.953125zm5.974121 1.796875l-1.328125 0l0 -7.75l1.328125 0l0 7.75zm-1.421875 -9.796875q0 -0.328125 0.1875 -0.546875q0.203125 -0.21875 0.578125 -0.21875q0.390625 0 0.59375 0.21875q0.203125 0.21875 0.203125 0.546875q0 0.328125 -0.203125 0.546875q-0.203125 0.203125 -0.59375 0.203125q-0.375 0 -0.578125 -0.203125q-0.1875 -0.21875 -0.1875 -0.546875zm6.6504517 8.859375q0.703125 0 1.234375 -0.421875q0.53125 -0.4375 0.59375 -1.078125l1.25 0q-0.03125 0.65625 -0.453125 1.265625q-0.421875 0.59375 -1.140625 0.953125q-0.703125 0.359375 -1.484375 0.359375q-1.578125 0 -2.515625 -1.046875q-0.9375 -1.0625 -0.9375 -2.890625l0 -0.21875q0 -1.140625 0.40625 -2.015625q0.421875 -0.875 1.203125 -1.359375q0.78125 -0.5 1.828125 -0.5q1.3125 0 2.171875 0.78125q0.859375 0.78125 0.921875 2.03125l-1.25 0q-0.0625 -0.75 -0.578125 -1.234375q-0.5 -0.484375 -1.265625 -0.484375q-1.0 0 -1.5625 0.734375q-0.546875 0.71875 -0.546875 2.09375l0 0.25q0 1.328125 0.546875 2.0625q0.546875 0.71875 1.578125 0.71875zm7.781006 1.078125q-1.578125 0 -2.5625 -1.03125q-0.984375 -1.03125 -0.984375 -2.765625l0 -0.25q0 -1.140625 0.4375 -2.046875q0.4375 -0.90625 1.21875 -1.421875q0.796875 -0.515625 1.71875 -0.515625q1.515625 0 2.34375 1.0q0.84375 1.0 0.84375 2.84375l0 0.546875l-5.25 0q0.03125 1.15625 0.671875 1.859375q0.640625 0.703125 1.625 0.703125q0.703125 0 1.1875 -0.28125q0.5 -0.296875 0.859375 -0.765625l0.8125 0.625q-0.984375 1.5 -2.921875 1.5zm-0.171875 -6.9375q-0.796875 0 -1.34375 0.59375q-0.546875 0.578125 -0.671875 1.625l3.875 0l0 -0.109375q-0.046875 -1.0 -0.546875 -1.546875q-0.484375 -0.5625 -1.3125 -0.5625z" fill-rule="nonzero"/><path fill="#f1f1f1" d="m483.6729 510.26395l0 0c0 -4.308197 3.4924927 -7.8006897 7.8006897 -7.8006897l138.69785 0c2.0688477 0 4.0530396 0.8218689 5.51593 2.2847595c1.4628906 1.4629211 2.284729 3.447052 2.284729 5.51593l0 31.201813c0 4.3081665 -3.4924316 7.800659 -7.800659 7.800659l-138.69785 0c-4.308197 0 -7.8006897 -3.4924927 -7.8006897 -7.800659z" fill-rule="evenodd"/><path stroke="#848484" stroke-width="1.0" stroke-linejoin="round" stroke-linecap="butt" d="m483.6729 510.26395l0 0c0 -4.308197 3.4924927 -7.8006897 7.8006897 -7.8006897l138.69785 0c2.0688477 0 4.0530396 0.8218689 5.51593 2.2847595c1.4628906 1.4629211 2.284729 3.447052 2.284729 5.51593l0 31.201813c0 4.3081665 -3.4924316 7.800659 -7.800659 7.800659l-138.69785 0c-4.308197 0 -7.8006897 -3.4924927 -7.8006897 -7.800659z" fill-rule="evenodd"/><path fill="#000000" d="m529.7264 517.8667l0 4.078125l-1.375 0l0 -10.421875l3.84375 0q1.71875 0 2.6875 0.875q0.96875 0.875 0.96875 2.3125q0 1.515625 -0.953125 2.34375q-0.9375 0.8125 -2.71875 0.8125l-2.453125 0zm0 -1.125l2.46875 0q1.109375 0 1.6875 -0.515625q0.59375 -0.515625 0.59375 -1.5q0 -0.9375 -0.59375 -1.484375q-0.578125 -0.5625 -1.609375 -0.578125l-2.546875 0l0 4.078125zm11.417908 -1.359375q-0.3125 -0.046875 -0.65625 -0.046875q-1.296875 0 -1.765625 1.109375l0 5.5l-1.328125 0l0 -7.75l1.296875 0l0.015625 0.90625q0.65625 -1.046875 1.84375 -1.046875q0.390625 0 0.59375 0.109375l0 1.21875zm0.7224121 2.625q0 -1.140625 0.4375 -2.046875q0.453125 -0.921875 1.25 -1.40625q0.796875 -0.5 1.828125 -0.5q1.578125 0 2.546875 1.09375q0.984375 1.09375 0.984375 2.921875l0 0.09375q0 1.125 -0.4375 2.03125q-0.4375 0.890625 -1.25 1.390625q-0.796875 0.5 -1.84375 0.5q-1.5625 0 -2.546875 -1.09375q-0.96875 -1.09375 -0.96875 -2.890625l0 -0.09375zm1.328125 0.15625q0 1.28125 0.59375 2.0625q0.59375 0.78125 1.59375 0.78125q1.015625 0 1.609375 -0.78125q0.59375 -0.796875 0.59375 -2.21875q0 -1.28125 -0.609375 -2.0625q-0.59375 -0.796875 -1.59375 -0.796875q-0.984375 0 -1.59375 0.78125q-0.59375 0.78125 -0.59375 2.234375zm8.749268 -3.96875l0 8.640625q0 2.234375 -2.03125 2.234375q-0.4375 0 -0.8125 -0.125l0 -1.0625q0.234375 0.0625 0.609375 0.0625q0.4375 0 0.671875 -0.25q0.234375 -0.234375 0.234375 -0.828125l0 -8.671875l1.328125 0zm-1.46875 -2.046875q0 -0.3125 0.1875 -0.53125q0.203125 -0.234375 0.59375 -0.234375q0.375 0 0.578125 0.21875q0.203125 0.21875 0.203125 0.546875q0 0.328125 -0.203125 0.546875q-0.203125 0.203125 -0.59375 0.203125q-0.375 0 -0.578125 -0.203125q-0.1875 -0.21875 -0.1875 -0.546875zm6.8119507 9.9375q-1.578125 0 -2.5625 -1.03125q-0.984375 -1.03125 -0.984375 -2.765625l0 -0.25q0 -1.140625 0.4375 -2.046875q0.4375 -0.90625 1.21875 -1.421875q0.796875 -0.515625 1.71875 -0.515625q1.515625 0 2.34375 1.0q0.84375 1.0 0.84375 2.84375l0 0.546875l-5.25 0q0.03125 1.15625 0.671875 1.859375q0.640625 0.703125 1.625 0.703125q0.703125 0 1.1875 -0.28125q0.5 -0.296875 0.859375 -0.765625l0.8125 0.625q-0.984375 1.5 -2.921875 1.5zm-0.171875 -6.9375q-0.796875 0 -1.34375 0.59375q-0.546875 0.578125 -0.671875 1.625l3.875 0l0 -0.109375q-0.046875 -1.0 -0.546875 -1.546875q-0.484375 -0.5625 -1.3125 -0.5625zm7.8271484 5.859375q0.703125 0 1.234375 -0.421875q0.53125 -0.4375 0.59375 -1.078125l1.25 0q-0.03125 0.65625 -0.453125 1.265625q-0.421875 0.59375 -1.140625 0.953125q-0.703125 0.359375 -1.484375 0.359375q-1.578125 0 -2.515625 -1.046875q-0.9375 -1.0625 -0.9375 -2.890625l0 -0.21875q0 -1.140625 0.40625 -2.015625q0.421875 -0.875 1.203125 -1.359375q0.78125 -0.5 1.828125 -0.5q1.3125 0 2.171875 0.78125q0.859375 0.78125 0.921875 2.03125l-1.25 0q-0.0625 -0.75 -0.578125 -1.234375q-0.5 -0.484375 -1.265625 -0.484375q-1.0 0 -1.5625 0.734375q-0.546875 0.71875 -0.546875 2.09375l0 0.25q0 1.328125 0.546875 2.0625q0.546875 0.71875 1.578125 0.71875zm6.359131 -8.6875l0 1.875l1.453125 0l0 1.03125l-1.453125 0l0 4.796875q0 0.46875 0.1875 0.703125q0.203125 0.234375 0.671875 0.234375q0.21875 0 0.625 -0.09375l0 1.078125q-0.53125 0.140625 -1.015625 0.140625q-0.890625 0 -1.34375 -0.53125q-0.453125 -0.546875 -0.453125 -1.53125l0 -4.796875l-1.40625 0l0 -1.03125l1.40625 0l0 -1.875l1.328125 0zm12.712769 4.8125l-4.515625 0l0 3.6875l5.25 0l0 1.125l-6.625 0l0 -10.421875l6.546875 0l0 1.140625l-5.171875 0l0 3.34375l4.515625 0l0 1.125zm3.814392 0.734375l0 4.078125l-1.375 0l0 -10.421875l3.84375 0q1.71875 0 2.6875 0.875q0.96875 0.875 0.96875 2.3125q0 1.515625 -0.953125 2.34375q-0.9375 0.8125 -2.71875 0.8125l-2.453125 0zm0 -1.125l2.46875 0q1.109375 0 1.6875 -0.515625q0.59375 -0.515625 0.59375 -1.5q0 -0.9375 -0.59375 -1.484375q-0.578125 -0.5625 -1.609375 -0.578125l-2.546875 0l0 4.078125z" fill-rule="nonzero"/><path fill="#000000" d="m529.5464 539.9448l-1.328125 0l0 -7.75l1.328125 0l0 7.75zm-1.421875 -9.796875q0 -0.328125 0.1875 -0.546875q0.203125 -0.21875 0.578125 -0.21875q0.390625 0 0.59375 0.21875q0.203125 0.21875 0.203125 0.546875q0 0.328125 -0.203125 0.546875q-0.203125 0.203125 -0.59375 0.203125q-0.375 0 -0.578125 -0.203125q-0.1875 -0.21875 -0.1875 -0.546875zm4.7911377 2.046875l0.046875 0.984375q0.890625 -1.125 2.3125 -1.125q2.46875 0 2.484375 2.78125l0 5.109375l-1.328125 0l0 -5.125q0 -0.84375 -0.375 -1.234375q-0.375 -0.40625 -1.171875 -0.40625q-0.640625 0 -1.140625 0.34375q-0.484375 0.34375 -0.75 0.90625l0 5.515625l-1.328125 0l0 -7.75l1.25 0zm9.39917 5.953125l1.90625 -5.953125l1.359375 0l-2.78125 7.75l-1.0 0l-2.8125 -7.75l1.359375 0l1.96875 5.953125zm4.085449 -2.140625q0 -1.140625 0.4375 -2.046875q0.453125 -0.921875 1.25 -1.40625q0.796875 -0.5 1.828125 -0.5q1.578125 0 2.546875 1.09375q0.984375 1.09375 0.984375 2.921875l0 0.09375q0 1.125 -0.4375 2.03125q-0.4375 0.890625 -1.25 1.390625q-0.796875 0.5 -1.84375 0.5q-1.5625 0 -2.546875 -1.09375q-0.96875 -1.09375 -0.96875 -2.890625l0 -0.09375zm1.328125 0.15625q0 1.28125 0.59375 2.0625q0.59375 0.78125 1.59375 0.78125q1.015625 0 1.609375 -0.78125q0.59375 -0.796875 0.59375 -2.21875q0 -1.28125 -0.609375 -2.0625q-0.59375 -0.796875 -1.59375 -0.796875q-0.984375 0 -1.59375 0.78125q-0.59375 0.78125 -0.59375 2.234375zm10.483643 2.84375q0.703125 0 1.234375 -0.421875q0.53125 -0.4375 0.59375 -1.078125l1.25 0q-0.03125 0.65625 -0.453125 1.265625q-0.421875 0.59375 -1.140625 0.953125q-0.703125 0.359375 -1.484375 0.359375q-1.578125 0 -2.515625 -1.046875q-0.9375 -1.0625 -0.9375 -2.890625l0 -0.21875q0 -1.140625 0.40625 -2.015625q0.421875 -0.875 1.203125 -1.359375q0.78125 -0.5 1.828125 -0.5q1.3125 0 2.171875 0.78125q0.859375 0.78125 0.921875 2.03125l-1.25 0q-0.0625 -0.75 -0.578125 -1.234375q-0.5 -0.484375 -1.265625 -0.484375q-1.0 0 -1.5625 0.734375q-0.546875 0.71875 -0.546875 2.09375l0 0.25q0 1.328125 0.546875 2.0625q0.546875 0.71875 1.578125 0.71875zm9.343506 0.9375q-0.109375 -0.234375 -0.1875 -0.8125q-0.921875 0.953125 -2.203125 0.953125q-1.140625 0 -1.875 -0.640625q-0.734375 -0.65625 -0.734375 -1.640625q0 -1.21875 0.921875 -1.875q0.921875 -0.671875 2.578125 -0.671875l1.296875 0l0 -0.609375q0 -0.703125 -0.421875 -1.109375q-0.40625 -0.40625 -1.21875 -0.40625q-0.703125 0 -1.1875 0.359375q-0.484375 0.34375 -0.484375 0.859375l-1.328125 0q0 -0.578125 0.40625 -1.109375q0.421875 -0.546875 1.125 -0.859375q0.703125 -0.328125 1.546875 -0.328125q1.34375 0 2.09375 0.671875q0.765625 0.671875 0.796875 1.84375l0 3.5625q0 1.0625 0.265625 1.703125l0 0.109375l-1.390625 0zm-2.203125 -1.015625q0.625 0 1.1875 -0.3125q0.5625 -0.328125 0.8125 -0.84375l0 -1.578125l-1.046875 0q-2.421875 0 -2.421875 1.421875q0 0.625 0.40625 0.96875q0.421875 0.34375 1.0625 0.34375zm7.190979 -8.609375l0 1.875l1.453125 0l0 1.03125l-1.453125 0l0 4.796875q0 0.46875 0.1875 0.703125q0.203125 0.234375 0.671875 0.234375q0.21875 0 0.625 -0.09375l0 1.078125q-0.53125 0.140625 -1.015625 0.140625q-0.890625 0 -1.34375 -0.53125q-0.453125 -0.546875 -0.453125 -1.53125l0 -4.796875l-1.40625 0l0 -1.03125l1.40625 0l0 -1.875l1.328125 0zm4.4282227 9.625l-1.328125 0l0 -7.75l1.328125 0l0 7.75zm-1.421875 -9.796875q0 -0.328125 0.1875 -0.546875q0.203125 -0.21875 0.578125 -0.21875q0.390625 0 0.59375 0.21875q0.203125 0.21875 0.203125 0.546875q0 0.328125 -0.203125 0.546875q-0.203125 0.203125 -0.59375 0.203125q-0.375 0 -0.578125 -0.203125q-0.1875 -0.21875 -0.1875 -0.546875zm3.1973267 5.859375q0 -1.140625 0.4375 -2.046875q0.453125 -0.921875 1.25 -1.40625q0.796875 -0.5 1.828125 -0.5q1.578125 0 2.546875 1.09375q0.984375 1.09375 0.984375 2.921875l0 0.09375q0 1.125 -0.4375 2.03125q-0.4375 0.890625 -1.25 1.390625q-0.796875 0.5 -1.84375 0.5q-1.5625 0 -2.546875 -1.09375q-0.96875 -1.09375 -0.96875 -2.890625l0 -0.09375zm1.328125 0.15625q0 1.28125 0.59375 2.0625q0.59375 0.78125 1.59375 0.78125q1.015625 0 1.609375 -0.78125q0.59375 -0.796875 0.59375 -2.21875q0 -1.28125 -0.609375 -2.0625q-0.59375 -0.796875 -1.59375 -0.796875q-0.984375 0 -1.59375 0.78125q-0.59375 0.78125 -0.59375 2.234375zm8.624268 -3.96875l0.046875 0.984375q0.890625 -1.125 2.3125 -1.125q2.46875 0 2.484375 2.78125l0 5.109375l-1.328125 0l0 -5.125q0 -0.84375 -0.375 -1.234375q-0.375 -0.40625 -1.171875 -0.40625q-0.640625 0 -1.140625 0.34375q-0.484375 0.34375 -0.75 0.90625l0 5.515625l-1.328125 0l0 -7.75l1.25 0z" fill-rule="nonzero"/><path fill="#f1f1f1" d="m307.96765 510.2628l0 0c0 -4.308197 3.4924927 -7.800659 7.8006897 -7.800659l138.69785 0c2.0688782 0 4.053009 0.8218384 5.51593 2.2847595c1.4628906 1.4628906 2.2847595 3.447052 2.2847595 5.5158997l0 31.201813c0 4.3081665 -3.4924927 7.800659 -7.8006897 7.800659l-138.69785 0c-4.308197 0 -7.8006897 -3.4924927 -7.8006897 -7.800659z" fill-rule="evenodd"/><path stroke="#848484" stroke-width="1.0" stroke-linejoin="round" stroke-linecap="butt" d="m307.96765 510.2628l0 0c0 -4.308197 3.4924927 -7.800659 7.8006897 -7.800659l138.69785 0c2.0688782 0 4.053009 0.8218384 5.51593 2.2847595c1.4628906 1.4628906 2.2847595 3.447052 2.2847595 5.5158997l0 31.201813c0 4.3081665 -3.4924927 7.800659 -7.8006897 7.800659l-138.69785 0c-4.308197 0 -7.8006897 -3.4924927 -7.8006897 -7.800659z" fill-rule="evenodd"/><path fill="#000000" d="m338.98914 526.86554l0 4.078125l-1.375 0l0 -10.421875l3.84375 0q1.71875 0 2.6875 0.875q0.96875 0.875 0.96875 2.3125q0 1.515625 -0.953125 2.34375q-0.9375 0.8125 -2.71875 0.8125l-2.453125 0zm0 -1.125l2.46875 0q1.109375 0 1.6875 -0.515625q0.59375 -0.515625 0.59375 -1.5q0 -0.9375 -0.59375 -1.484375q-0.578125 -0.5625 -1.609375 -0.578125l-2.546875 0l0 4.078125zm11.417908 -1.359375q-0.3125 -0.046875 -0.65625 -0.046875q-1.296875 0 -1.765625 1.109375l0 5.5l-1.328125 0l0 -7.75l1.296875 0l0.015625 0.90625q0.65625 -1.046875 1.84375 -1.046875q0.390625 0 0.59375 0.109375l0 1.21875zm0.7223816 2.625q0 -1.140625 0.4375 -2.046875q0.453125 -0.921875 1.25 -1.40625q0.796875 -0.5 1.828125 -0.5q1.578125 0 2.546875 1.09375q0.984375 1.09375 0.984375 2.921875l0 0.09375q0 1.125 -0.4375 2.03125q-0.4375 0.890625 -1.25 1.390625q-0.796875 0.5 -1.84375 0.5q-1.5625 0 -2.546875 -1.09375q-0.96875 -1.09375 -0.96875 -2.890625l0 -0.09375zm1.328125 0.15625q0 1.28125 0.59375 2.0625q0.59375 0.78125 1.59375 0.78125q1.015625 0 1.609375 -0.78125q0.59375 -0.796875 0.59375 -2.21875q0 -1.28125 -0.609375 -2.0625q-0.59375 -0.796875 -1.59375 -0.796875q-0.984375 0 -1.59375 0.78125q-0.59375 0.78125 -0.59375 2.234375zm8.749268 -3.96875l0 8.640625q0 2.234375 -2.03125 2.234375q-0.4375 0 -0.8125 -0.125l0 -1.0625q0.234375 0.0625 0.609375 0.0625q0.4375 0 0.671875 -0.25q0.234375 -0.234375 0.234375 -0.828125l0 -8.671875l1.328125 0zm-1.46875 -2.046875q0 -0.3125 0.1875 -0.53125q0.203125 -0.234375 0.59375 -0.234375q0.375 0 0.578125 0.21875q0.203125 0.21875 0.203125 0.546875q0 0.328125 -0.203125 0.546875q-0.203125 0.203125 -0.59375 0.203125q-0.375 0 -0.578125 -0.203125q-0.1875 -0.21875 -0.1875 -0.546875zm6.811981 9.9375q-1.578125 0 -2.5625 -1.03125q-0.984375 -1.03125 -0.984375 -2.765625l0 -0.25q0 -1.140625 0.4375 -2.046875q0.4375 -0.90625 1.21875 -1.421875q0.796875 -0.515625 1.71875 -0.515625q1.515625 0 2.34375 1.0q0.84375 1.0 0.84375 2.84375l0 0.546875l-5.25 0q0.03125 1.15625 0.671875 1.859375q0.640625 0.703125 1.625 0.703125q0.703125 0 1.1875 -0.28125q0.5 -0.296875 0.859375 -0.765625l0.8125 0.625q-0.984375 1.5 -2.921875 1.5zm-0.171875 -6.9375q-0.796875 0 -1.34375 0.59375q-0.546875 0.578125 -0.671875 1.625l3.875 0l0 -0.109375q-0.046875 -1.0 -0.546875 -1.546875q-0.484375 -0.5625 -1.3125 -0.5625zm7.8271484 5.859375q0.703125 0 1.234375 -0.421875q0.53125 -0.4375 0.59375 -1.078125l1.25 0q-0.03125 0.65625 -0.453125 1.265625q-0.421875 0.59375 -1.140625 0.953125q-0.703125 0.359375 -1.484375 0.359375q-1.578125 0 -2.515625 -1.046875q-0.9375 -1.0625 -0.9375 -2.890625l0 -0.21875q0 -1.140625 0.40625 -2.015625q0.421875 -0.875 1.203125 -1.359375q0.78125 -0.5 1.828125 -0.5q1.3125 0 2.171875 0.78125q0.859375 0.78125 0.921875 2.03125l-1.25 0q-0.0625 -0.75 -0.578125 -1.234375q-0.5 -0.484375 -1.265625 -0.484375q-1.0 0 -1.5625 0.734375q-0.546875 0.71875 -0.546875 2.09375l0 0.25q0 1.328125 0.546875 2.0625q0.546875 0.71875 1.578125 0.71875zm6.359131 -8.6875l0 1.875l1.453125 0l0 1.03125l-1.453125 0l0 4.796875q0 0.46875 0.1875 0.703125q0.203125 0.234375 0.671875 0.234375q0.21875 0 0.625 -0.09375l0 1.078125q-0.53125 0.140625 -1.015625 0.140625q-0.890625 0 -1.34375 -0.53125q-0.453125 -0.546875 -0.453125 -1.53125l0 -4.796875l-1.40625 0l0 -1.03125l1.40625 0l0 -1.875l1.328125 0zm9.900269 4.984375q-1.765625 -0.515625 -2.578125 -1.25q-0.796875 -0.75 -0.796875 -1.828125q0 -1.234375 0.984375 -2.03125q0.984375 -0.8125 2.546875 -0.8125q1.078125 0 1.921875 0.421875q0.84375 0.40625 1.296875 1.140625q0.46875 0.734375 0.46875 1.59375l-1.390625 0q0 -0.9375 -0.609375 -1.484375q-0.59375 -0.546875 -1.6875 -0.546875q-1.015625 0 -1.578125 0.453125q-0.5625 0.453125 -0.5625 1.234375q0 0.640625 0.53125 1.09375q0.546875 0.4375 1.84375 0.796875q1.296875 0.359375 2.03125 0.8125q0.734375 0.4375 1.078125 1.03125q0.359375 0.578125 0.359375 1.375q0 1.265625 -0.984375 2.03125q-0.984375 0.75 -2.640625 0.75q-1.078125 0 -2.015625 -0.40625q-0.921875 -0.421875 -1.421875 -1.125q-0.5 -0.71875 -0.5 -1.625l1.375 0q0 0.9375 0.6875 1.484375q0.703125 0.546875 1.875 0.546875q1.09375 0 1.671875 -0.4375q0.578125 -0.453125 0.578125 -1.21875q0 -0.765625 -0.546875 -1.171875q-0.53125 -0.421875 -1.9375 -0.828125zm8.632507 4.78125q-1.578125 0 -2.5625 -1.03125q-0.984375 -1.03125 -0.984375 -2.765625l0 -0.25q0 -1.140625 0.4375 -2.046875q0.4375 -0.90625 1.21875 -1.421875q0.796875 -0.515625 1.71875 -0.515625q1.515625 0 2.34375 1.0q0.84375 1.0 0.84375 2.84375l0 0.546875l-5.25 0q0.03125 1.15625 0.671875 1.859375q0.640625 0.703125 1.625 0.703125q0.703125 0 1.1875 -0.28125q0.5 -0.296875 0.859375 -0.765625l0.8125 0.625q-0.984375 1.5 -2.921875 1.5zm-0.171875 -6.9375q-0.796875 0 -1.34375 0.59375q-0.546875 0.578125 -0.671875 1.625l3.875 0l0 -0.109375q-0.046875 -1.0 -0.546875 -1.546875q-0.484375 -0.5625 -1.3125 -0.5625zm8.467773 0.234375q-0.3125 -0.046875 -0.65625 -0.046875q-1.296875 0 -1.765625 1.109375l0 5.5l-1.328125 0l0 -7.75l1.296875 0l0.015625 0.90625q0.65625 -1.046875 1.84375 -1.046875q0.390625 0 0.59375 0.109375l0 1.21875zm3.9007874 4.765625l1.90625 -5.953125l1.359375 0l-2.78125 7.75l-1.0 0l-2.8125 -7.75l1.359375 0l1.96875 5.953125zm5.974121 1.796875l-1.328125 0l0 -7.75l1.328125 0l0 7.75zm-1.421875 -9.796875q0 -0.328125 0.1875 -0.546875q0.203125 -0.21875 0.578125 -0.21875q0.390625 0 0.59375 0.21875q0.203125 0.21875 0.203125 0.546875q0 0.328125 -0.203125 0.546875q-0.203125 0.203125 -0.59375 0.203125q-0.375 0 -0.578125 -0.203125q-0.1875 -0.21875 -0.1875 -0.546875zm6.6504517 8.859375q0.703125 0 1.234375 -0.421875q0.53125 -0.4375 0.59375 -1.078125l1.25 0q-0.03125 0.65625 -0.453125 1.265625q-0.421875 0.59375 -1.140625 0.953125q-0.703125 0.359375 -1.484375 0.359375q-1.578125 0 -2.515625 -1.046875q-0.9375 -1.0625 -0.9375 -2.890625l0 -0.21875q0 -1.140625 0.40625 -2.015625q0.421875 -0.875 1.203125 -1.359375q0.78125 -0.5 1.828125 -0.5q1.3125 0 2.171875 0.78125q0.859375 0.78125 0.921875 2.03125l-1.25 0q-0.0625 -0.75 -0.578125 -1.234375q-0.5 -0.484375 -1.265625 -0.484375q-1.0 0 -1.5625 0.734375q-0.546875 0.71875 -0.546875 2.09375l0 0.25q0 1.328125 0.546875 2.0625q0.546875 0.71875 1.578125 0.71875zm7.781006 1.078125q-1.578125 0 -2.5625 -1.03125q-0.984375 -1.03125 -0.984375 -2.765625l0 -0.25q0 -1.140625 0.4375 -2.046875q0.4375 -0.90625 1.21875 -1.421875q0.796875 -0.515625 1.71875 -0.515625q1.515625 0 2.34375 1.0q0.84375 1.0 0.84375 2.84375l0 0.546875l-5.25 0q0.03125 1.15625 0.671875 1.859375q0.640625 0.703125 1.625 0.703125q0.703125 0 1.1875 -0.28125q0.5 -0.296875 0.859375 -0.765625l0.8125 0.625q-0.984375 1.5 -2.921875 1.5zm-0.171875 -6.9375q-0.796875 0 -1.34375 0.59375q-0.546875 0.578125 -0.671875 1.625l3.875 0l0 -0.109375q-0.046875 -1.0 -0.546875 -1.546875q-0.484375 -0.5625 -1.3125 -0.5625z" fill-rule="nonzero"/><path fill="#f1f1f1" d="m6.0275593 349.46896l0 0c0 -4.308197 3.4924831 -7.8006897 7.800681 -7.8006897l138.69785 0c2.068863 0 4.052994 0.8218689 5.515915 2.2847595c1.4629059 1.4629211 2.2847595 3.447052 2.2847595 5.51593l0 31.201782c0 4.308197 -3.4924774 7.8006897 -7.8006744 7.8006897l-138.69785 0c-4.308198 0 -7.800681 -3.4924927 -7.800681 -7.8006897z" fill-rule="evenodd"/><path stroke="#848484" stroke-width="1.0" stroke-linejoin="round" stroke-linecap="butt" d="m6.0275593 349.46896l0 0c0 -4.308197 3.4924831 -7.8006897 7.800681 -7.8006897l138.69785 0c2.068863 0 4.052994 0.8218689 5.515915 2.2847595c1.4629059 1.4629211 2.2847595 3.447052 2.2847595 5.51593l0 31.201782c0 4.308197 -3.4924774 7.8006897 -7.8006744 7.8006897l-138.69785 0c-4.308198 0 -7.800681 -3.4924927 -7.800681 -7.8006897z" fill-rule="evenodd"/><path fill="#000000" d="m62.683205 357.07172l0 4.078125l-1.375 0l0 -10.421875l3.84375 0q1.71875 0 2.6875 0.875q0.96875 0.875 0.96875 2.3125q0 1.515625 -0.953125 2.34375q-0.9375 0.8125 -2.71875 0.8125l-2.453125 0zm0 -1.125l2.46875 0q1.109375 0 1.6875 -0.515625q0.59375 -0.515625 0.59375 -1.5q0 -0.9375 -0.59375 -1.484375q-0.578125 -0.5625 -1.609375 -0.578125l-2.546875 0l0 4.078125zm11.417908 -1.359375q-0.3125 -0.046875 -0.65625 -0.046875q-1.296875 0 -1.765625 1.109375l0 5.5l-1.328125 0l0 -7.75l1.296875 0l0.015625 0.90625q0.65625 -1.046875 1.84375 -1.046875q0.390625 0 0.59375 0.109375l0 1.21875zm0.7223816 2.625q0 -1.140625 0.4375 -2.046875q0.453125 -0.921875 1.25 -1.40625q0.796875 -0.5 1.828125 -0.5q1.578125 0 2.546875 1.09375q0.984375 1.09375 0.984375 2.921875l0 0.09375q0 1.125 -0.4375 2.03125q-0.4375 0.890625 -1.25 1.390625q-0.796875 0.5 -1.84375 0.5q-1.5625 0 -2.546875 -1.09375q-0.96875 -1.09375 -0.96875 -2.890625l0 -0.09375zm1.328125 0.15625q0 1.28125 0.59375 2.0625q0.59375 0.78125 1.59375 0.78125q1.015625 0 1.609375 -0.78125q0.59375 -0.796875 0.59375 -2.21875q0 -1.28125 -0.609375 -2.0625q-0.59375 -0.796875 -1.59375 -0.796875q-0.984375 0 -1.59375 0.78125q-0.59375 0.78125 -0.59375 2.234375zm8.749268 -3.96875l0 8.640625q0 2.234375 -2.03125 2.234375q-0.4375 0 -0.8125 -0.125l0 -1.0625q0.234375 0.0625 0.609375 0.0625q0.4375 0 0.671875 -0.25q0.234375 -0.234375 0.234375 -0.828125l0 -8.671875l1.328125 0zm-1.46875 -2.046875q0 -0.3125 0.1875 -0.53125q0.203125 -0.234375 0.59375 -0.234375q0.375 0 0.578125 0.21875q0.203125 0.21875 0.203125 0.546875q0 0.328125 -0.203125 0.546875q-0.203125 0.203125 -0.59375 0.203125q-0.375 0 -0.578125 -0.203125q-0.1875 -0.21875 -0.1875 -0.546875zm6.811966 9.9375q-1.578125 0 -2.5625 -1.03125q-0.984375 -1.03125 -0.984375 -2.765625l0 -0.25q0 -1.140625 0.4375 -2.046875q0.4375 -0.90625 1.21875 -1.421875q0.796875 -0.515625 1.71875 -0.515625q1.515625 0 2.34375 1.0q0.84375 1.0 0.84375 2.84375l0 0.546875l-5.25 0q0.03125 1.15625 0.671875 1.859375q0.640625 0.703125 1.625 0.703125q0.703125 0 1.1875 -0.28125q0.5 -0.296875 0.859375 -0.765625l0.8125 0.625q-0.984375 1.5 -2.921875 1.5zm-0.171875 -6.9375q-0.796875 0 -1.34375 0.59375q-0.546875 0.578125 -0.671875 1.625l3.875 0l0 -0.109375q-0.046875 -1.0 -0.546875 -1.546875q-0.484375 -0.5625 -1.3125 -0.5625zm7.8271637 5.859375q0.703125 0 1.234375 -0.421875q0.53125 -0.4375 0.59375 -1.078125l1.25 0q-0.03125 0.65625 -0.453125 1.265625q-0.421875 0.59375 -1.140625 0.953125q-0.703125 0.359375 -1.484375 0.359375q-1.578125 0 -2.515625 -1.046875q-0.9375 -1.0625 -0.9375 -2.890625l0 -0.21875q0 -1.140625 0.40625 -2.015625q0.421875 -0.875 1.203125 -1.359375q0.78125 -0.5 1.828125 -0.5q1.3125 0 2.171875 0.78125q0.859375 0.78125 0.921875 2.03125l-1.25 0q-0.0625 -0.75 -0.578125 -1.234375q-0.5 -0.484375 -1.265625 -0.484375q-1.0 0 -1.5625 0.734375q-0.546875 0.71875 -0.546875 2.09375l0 0.25q0 1.328125 0.546875 2.0625q0.546875 0.71875 1.578125 0.71875zm6.359131 -8.6875l0 1.875l1.453125 0l0 1.03125l-1.453125 0l0 4.796875q0 0.46875 0.1875 0.703125q0.203125 0.234375 0.671875 0.234375q0.21875 0 0.625 -0.09375l0 1.078125q-0.53125 0.140625 -1.015625 0.140625q-0.890625 0 -1.34375 -0.53125q-0.453125 -0.546875 -0.453125 -1.53125l0 -4.796875l-1.40625 0l0 -1.03125l1.40625 0l0 -1.875l1.328125 0z" fill-rule="nonzero"/><path fill="#000000" d="m26.854269 374.91547q0 -1.609375 0.421875 -3.09375q0.4375 -1.5 1.296875 -2.703125q0.859375 -1.21875 1.78125 -1.734375l0.28125 0.875q-1.046875 0.8125 -1.71875 2.453125q-0.671875 1.640625 -0.734375 3.6875l0 0.609375q0 2.765625 1.0 4.796875q0.609375 1.21875 1.453125 1.90625l-0.28125 0.796875q-0.953125 -0.53125 -1.8125 -1.765625q-1.6875 -2.4375 -1.6875 -5.828125zm8.165712 3.296875q0.703125 0 1.234375 -0.421875q0.53125 -0.4375 0.59375 -1.078125l1.25 0q-0.03125 0.65625 -0.453125 1.265625q-0.421875 0.59375 -1.140625 0.953125q-0.703125 0.359375 -1.484375 0.359375q-1.578125 0 -2.515625 -1.046875q-0.9375019 -1.0625 -0.9375019 -2.890625l0 -0.21875q0 -1.140625 0.40625 -2.015625q0.4218769 -0.875 1.2031269 -1.359375q0.78125 -0.5 1.828125 -0.5q1.3125 0 2.171875 0.78125q0.859375 0.78125 0.921875 2.03125l-1.25 0q-0.0625 -0.75 -0.578125 -1.234375q-0.5 -0.484375 -1.265625 -0.484375q-1.0 0 -1.5625 0.734375q-0.546875 0.71875 -0.546875 2.09375l0 0.25q0 1.328125 0.546875 2.0625q0.546875 0.71875 1.578125 0.71875zm4.218506 -3.0q0 -1.140625 0.4375 -2.046875q0.453125 -0.921875 1.25 -1.40625q0.796875 -0.5 1.828125 -0.5q1.578125 0 2.546875 1.09375q0.984375 1.09375 0.984375 2.921875l0 0.09375q0 1.125 -0.4375 2.03125q-0.4375 0.890625 -1.25 1.390625q-0.796875 0.5 -1.84375 0.5q-1.5625 0 -2.546875 -1.09375q-0.96875 -1.09375 -0.96875 -2.890625l0 -0.09375zm1.328125 0.15625q0 1.28125 0.59375 2.0625q0.59375 0.78125 1.59375 0.78125q1.015625 0 1.609375 -0.78125q0.59375 -0.796875 0.59375 -2.21875q0 -1.28125 -0.609375 -2.0625q-0.59375 -0.796875 -1.59375 -0.796875q-0.984375 0 -1.59375 0.78125q-0.59375 0.78125 -0.59375 2.234375zm8.624268 -3.96875l0.046875 0.984375q0.890625 -1.125 2.3125 -1.125q2.46875 0 2.484375 2.78125l0 5.109375l-1.328125 0l0 -5.125q0 -0.84375 -0.375 -1.234375q-0.375 -0.40625 -1.171875 -0.40625q-0.640625 0 -1.140625 0.34375q-0.484375 0.34375 -0.75 0.90625l0 5.515625l-1.328125 0l0 -7.75l1.25 0zm8.633575 -1.875l0 1.875l1.453125 0l0 1.03125l-1.453125 0l0 4.796875q0 0.46875 0.1875 0.703125q0.203125 0.234375 0.671875 0.234375q0.21875 0 0.625 -0.09375l0 1.078125q-0.53125 0.140625 -1.015625 0.140625q-0.890625 0 -1.34375 -0.53125q-0.453125 -0.546875 -0.453125 -1.53125l0 -4.796875l-1.40625 0l0 -1.03125l1.40625 0l0 -1.875l1.328125 0zm7.771988 9.625q-0.109375 -0.234375 -0.1875 -0.8125q-0.921875 0.953125 -2.203125 0.953125q-1.140625 0 -1.875 -0.640625q-0.734375 -0.65625 -0.734375 -1.640625q0 -1.21875 0.921875 -1.875q0.921875 -0.671875 2.578125 -0.671875l1.296875 0l0 -0.609375q0 -0.703125 -0.421875 -1.109375q-0.40625 -0.40625 -1.21875 -0.40625q-0.703125 0 -1.1875 0.359375q-0.484375 0.34375 -0.484375 0.859375l-1.328125 0q0 -0.578125 0.40625 -1.109375q0.421875 -0.546875 1.125 -0.859375q0.703125 -0.328125 1.546875 -0.328125q1.34375 0 2.09375 0.671875q0.765625 0.671875 0.796875 1.84375l0 3.5625q0 1.0625 0.265625 1.703125l0 0.109375l-1.390625 0zm-2.203125 -1.015625q0.625 0 1.1875 -0.3125q0.5625 -0.328125 0.8125 -0.84375l0 -1.578125l-1.046875 0q-2.421875 0 -2.421875 1.421875q0 0.625 0.40625 0.96875q0.421875 0.34375 1.0625 0.34375zm6.8315735 1.015625l-1.328125 0l0 -7.75l1.328125 0l0 7.75zm-1.421875 -9.796875q0 -0.328125 0.1875 -0.546875q0.203125 -0.21875 0.578125 -0.21875q0.390625 0 0.59375 0.21875q0.203125 0.21875 0.203125 0.546875q0 0.328125 -0.203125 0.546875q-0.203125 0.203125 -0.59375 0.203125q-0.375 0 -0.578125 -0.203125q-0.1875 -0.21875 -0.1875 -0.546875zm4.791092 2.046875l0.046875 0.984375q0.890625 -1.125 2.3125 -1.125q2.46875 0 2.484375 2.78125l0 5.109375l-1.328125 0l0 -5.125q0 -0.84375 -0.375 -1.234375q-0.375 -0.40625 -1.171875 -0.40625q-0.640625 0 -1.140625 0.34375q-0.484375 0.34375 -0.75 0.90625l0 5.515625l-1.328125 0l0 -7.75l1.25 0zm10.05545 7.890625q-1.578125 0 -2.5625 -1.03125q-0.984375 -1.03125 -0.984375 -2.765625l0 -0.25q0 -1.140625 0.4375 -2.046875q0.4375 -0.90625 1.21875 -1.421875q0.796875 -0.515625 1.71875 -0.515625q1.515625 0 2.34375 1.0q0.84375 1.0 0.84375 2.84375l0 0.546875l-5.25 0q0.03125 1.15625 0.671875 1.859375q0.640625 0.703125 1.625 0.703125q0.703125 0 1.1875 -0.28125q0.5 -0.296875 0.859375 -0.765625l0.8125 0.625q-0.984375 1.5 -2.921875 1.5zm-0.171875 -6.9375q-0.796875 0 -1.34375 0.59375q-0.546875 0.578125 -0.671875 1.625l3.875 0l0 -0.109375q-0.046875 -1.0 -0.546875 -1.546875q-0.484375 -0.5625 -1.3125 -0.5625zm8.467789 0.234375q-0.3125 -0.046875 -0.65625 -0.046875q-1.296875 0 -1.765625 1.109375l0 5.5l-1.328125 0l0 -7.75l1.296875 0l0.015625 0.90625q0.65625 -1.046875 1.84375 -1.046875q0.390625 0 0.59375 0.109375l0 1.21875zm9.3532715 4.515625q0 -0.546875 -0.40625 -0.84375q-0.40625 -0.296875 -1.421875 -0.5q-1.0 -0.21875 -1.59375 -0.515625q-0.578125 -0.3125 -0.875 -0.71875q-0.28125 -0.421875 -0.28125 -1.0q0 -0.9375 0.8125 -1.59375q0.8125 -0.671875 2.0625 -0.671875q1.3125 0 2.125 0.6875q0.828125 0.671875 0.828125 1.734375l-1.328125 0q0 -0.546875 -0.46875 -0.9375q-0.453125 -0.390625 -1.15625 -0.390625q-0.734375 0 -1.140625 0.3125q-0.40625 0.3125 -0.40625 0.828125q0 0.46875 0.375 0.71875q0.390625 0.25 1.375 0.46875q1.0 0.21875 1.609375 0.53125q0.609375 0.296875 0.90625 0.734375q0.296875 0.4375 0.296875 1.0625q0 1.03125 -0.828125 1.65625q-0.828125 0.625 -2.15625 0.625q-0.921875 0 -1.640625 -0.328125q-0.71875 -0.328125 -1.125 -0.921875q-0.390625 -0.59375 -0.390625 -1.28125l1.3125 0q0.046875 0.671875 0.53125 1.0625q0.5 0.390625 1.3125 0.390625q0.75 0 1.203125 -0.296875q0.46875 -0.3125 0.46875 -0.8125zm6.150879 1.109375q0.703125 0 1.234375 -0.421875q0.53125 -0.4375 0.59375 -1.078125l1.25 0q-0.03125 0.65625 -0.453125 1.265625q-0.421875 0.59375 -1.140625 0.953125q-0.703125 0.359375 -1.484375 0.359375q-1.578125 0 -2.515625 -1.046875q-0.9375 -1.0625 -0.9375 -2.890625l0 -0.21875q0 -1.140625 0.40625 -2.015625q0.421875 -0.875 1.203125 -1.359375q0.78125 -0.5 1.828125 -0.5q1.3125 0 2.171875 0.78125q0.859375 0.78125 0.921875 2.03125l-1.25 0q-0.0625 -0.75 -0.578125 -1.234375q-0.5 -0.484375 -1.265625 -0.484375q-1.0 0 -1.5625 0.734375q-0.546875 0.71875 -0.546875 2.09375l0 0.25q0 1.328125 0.546875 2.0625q0.546875 0.71875 1.578125 0.71875zm4.218506 -3.0q0 -1.140625 0.4375 -2.046875q0.453125 -0.921875 1.25 -1.40625q0.796875 -0.5 1.828125 -0.5q1.578125 0 2.546875 1.09375q0.984375 1.09375 0.984375 2.921875l0 0.09375q0 1.125 -0.4375 2.03125q-0.4375 0.890625 -1.25 1.390625q-0.796875 0.5 -1.84375 0.5q-1.5625 0 -2.546875 -1.09375q-0.96875 -1.09375 -0.96875 -2.890625l0 -0.09375zm1.328125 0.15625q0 1.28125 0.59375 2.0625q0.59375 0.78125 1.59375 0.78125q1.015625 0 1.609375 -0.78125q0.59375 -0.796875 0.59375 -2.21875q0 -1.28125 -0.609375 -2.0625q-0.59375 -0.796875 -1.59375 -0.796875q-0.984375 0 -1.59375 0.78125q-0.59375 0.78125 -0.59375 2.234375zm13.921143 0q0 1.765625 -0.8125 2.84375q-0.8125 1.078125 -2.1875 1.078125q-1.40625 0 -2.21875 -0.890625l0 3.734375l-1.328125 0l0 -10.734375l1.21875 0l0.0625 0.859375q0.796875 -1.0 2.234375 -1.0q1.40625 0 2.21875 1.0625q0.8125 1.046875 0.8125 2.921875l0 0.125zm-1.328125 -0.15625q0 -1.3125 -0.5625 -2.0625q-0.546875 -0.765625 -1.53125 -0.765625q-1.203125 0 -1.796875 1.0625l0 3.703125q0.59375 1.0625 1.8125 1.0625q0.953125 0 1.515625 -0.75q0.5625 -0.765625 0.5625 -2.25zm6.222664 4.078125q-1.578125 0 -2.5625 -1.03125q-0.984375 -1.03125 -0.984375 -2.765625l0 -0.25q0 -1.140625 0.4375 -2.046875q0.4375 -0.90625 1.21875 -1.421875q0.796875 -0.515625 1.71875 -0.515625q1.515625 0 2.34375 1.0q0.84375 1.0 0.84375 2.84375l0 0.546875l-5.25 0q0.03125 1.15625 0.671875 1.859375q0.640625 0.703125 1.625 0.703125q0.703125 0 1.1875 -0.28125q0.5 -0.296875 0.859375 -0.765625l0.8125 0.625q-0.984375 1.5 -2.921875 1.5zm-0.171875 -6.9375q-0.796875 0 -1.34375 0.59375q-0.546875 0.578125 -0.671875 1.625l3.875 0l0 -0.109375q-0.046875 -1.0 -0.546875 -1.546875q-0.484375 -0.5625 -1.3125 -0.5625zm7.780304 2.640625q0 1.59375 -0.421875 3.0625q-0.421875 1.453125 -1.28125 2.6875q-0.859375 1.25 -1.8125153 1.765625l-0.28125 -0.796875q1.1093903 -0.859375 1.7812653 -2.625q0.671875 -1.78125 0.6875 -3.953125l0 -0.234375q0 -1.5 -0.328125 -2.78125q-0.3125 -1.296875 -0.875 -2.3125q-0.5625 -1.03125 -1.2656403 -1.609375l0.28125 -0.8125q0.95314026 0.53125 1.7968903 1.765625q0.859375 1.21875 1.28125 2.6875q0.4375 1.46875 0.4375 3.15625z" fill-rule="nonzero"/><path fill="#000000" fill-opacity="0.0" d="m83.17716 173.70198l0 -121.16536" fill-rule="evenodd"/><path stroke="#000000" stroke-width="2.0" stroke-linejoin="round" stroke-linecap="butt" d="m83.17716 173.70198l0 -114.31119" fill-rule="evenodd"/><path fill="#000000" stroke="#000000" stroke-width="2.0" stroke-linecap="butt" d="m83.17716 59.390797l2.2491684 2.2491646l-2.2491684 -6.179535l-2.2491608 6.179535z" fill-rule="evenodd"/><path fill="#000000" fill-opacity="0.0" d="m83.17716 341.66827l0 -121.16536" fill-rule="evenodd"/><path stroke="#000000" stroke-width="2.0" stroke-linejoin="round" stroke-linecap="butt" d="m83.17716 341.66827l0 -114.3112" fill-rule="evenodd"/><path fill="#000000" stroke="#000000" stroke-width="2.0" stroke-linecap="butt" d="m83.17716 227.35709l2.2491684 2.2491608l-2.2491684 -6.179535l-2.2491608 6.179535z" fill-rule="evenodd"/><path fill="#000000" fill-opacity="0.0" d="m385.1093 502.46283l-70.299225 -30.015747" fill-rule="evenodd"/><path stroke="#000000" stroke-width="2.0" stroke-linejoin="round" stroke-linecap="butt" d="m385.10928 502.4628l-63.995575 -27.32428" fill-rule="evenodd"/><path fill="#000000" stroke="#000000" stroke-width="2.0" stroke-linecap="butt" d="m321.1137 475.13852l2.9516907 -1.1853027l-6.5663757 -0.35806274l4.799988 4.495056z" fill-rule="evenodd"/><path fill="#000000" fill-opacity="0.0" d="m385.1093 334.48828l-70.299225 -30.015747" fill-rule="evenodd"/><path stroke="#000000" stroke-width="2.0" stroke-linejoin="round" stroke-linecap="butt" d="m385.10928 334.48828l-63.995575 -27.32425" fill-rule="evenodd"/><path fill="#000000" stroke="#000000" stroke-width="2.0" stroke-linecap="butt" d="m321.11374 307.164l2.9516907 -1.1853027l-6.5663757 -0.35806274l4.799988 4.4950867z" fill-rule="evenodd"/><path fill="#000000" fill-opacity="0.0" d="m524.2332 334.49057l-186.01578 -30.015747" fill-rule="evenodd"/><path stroke="#000000" stroke-width="2.0" stroke-linejoin="round" stroke-linecap="butt" d="m524.2332 334.4906l-179.24911 -28.92389" fill-rule="evenodd"/><path fill="#000000" stroke="#000000" stroke-width="2.0" stroke-linecap="butt" d="m344.98407 305.5667l2.5787659 -1.8621521l-6.4589233 1.2360535l5.7423096 3.204834z" fill-rule="evenodd"/><path fill="#000000" fill-opacity="0.0" d="m294.70584 425.636l0 -121.165344" fill-rule="evenodd"/><path stroke="#000000" stroke-width="2.0" stroke-linejoin="round" stroke-linecap="butt" stroke-dasharray="8.0,6.0" d="m294.70584 425.636l0 -114.31119" fill-rule="evenodd"/><path fill="#000000" stroke="#000000" stroke-width="2.0" stroke-linecap="butt" d="m294.70584 311.3248l2.2491455 2.249176l-2.2491455 -6.179535l-2.249176 6.179535z" fill-rule="evenodd"/><path fill="#000000" fill-opacity="0.0" d="m294.70584 257.66776l0 -121.165344" fill-rule="evenodd"/><path stroke="#000000" stroke-width="2.0" stroke-linejoin="round" stroke-linecap="butt" stroke-dasharray="8.0,6.0" d="m294.70584 257.6678l0 -114.3112" fill-rule="evenodd"/><path fill="#000000" stroke="#000000" stroke-width="2.0" stroke-linecap="butt" d="m294.70584 143.35658l2.2491455 2.2491608l-2.2491455 -6.179535l-2.249176 6.179535z" fill-rule="evenodd"/><path fill="#000000" fill-opacity="0.0" d="m524.2332 502.46512l-186.01578 -30.015747" fill-rule="evenodd"/><path stroke="#000000" stroke-width="2.0" stroke-linejoin="round" stroke-linecap="butt" d="m524.2332 502.46515l-179.24911 -28.92389" fill-rule="evenodd"/><path fill="#000000" stroke="#000000" stroke-width="2.0" stroke-linecap="butt" d="m344.98407 473.54126l2.5787659 -1.8621521l-6.4589233 1.2360535l5.7423096 3.204834z" fill-rule="evenodd"/><path fill="#000000" fill-opacity="0.0" d="m217.55707 113.099686l-101.95275 -60.566933" fill-rule="evenodd"/><path stroke="#000000" stroke-width="2.0" stroke-linejoin="round" stroke-linecap="butt" d="m217.55707 113.099686l-96.05999 -57.066227" fill-rule="evenodd"/><path fill="#000000" stroke="#000000" stroke-width="2.0" stroke-linecap="butt" d="m121.49708 56.033463l3.082428 -0.78494644l-6.461502 -1.2224579l4.1640167 5.0898323z" fill-rule="evenodd"/><path fill="#000000" fill-opacity="0.0" d="m217.55707 281.07074l-101.95275 -60.56694" fill-rule="evenodd"/><path stroke="#000000" stroke-width="2.0" stroke-linejoin="round" stroke-linecap="butt" d="m217.55707 281.0707l-96.05999 -57.066193" fill-rule="evenodd"/><path fill="#000000" stroke="#000000" stroke-width="2.0" stroke-linecap="butt" d="m121.49708 224.0045l3.082428 -0.7849426l-6.461502 -1.2224579l4.1640167 5.0898285z" fill-rule="evenodd"/><path fill="#000000" fill-opacity="0.0" d="m217.55707 449.0395l-101.95275 -60.566925" fill-rule="evenodd"/><path stroke="#000000" stroke-width="2.0" stroke-linejoin="round" stroke-linecap="butt" d="m217.55707 449.0395l-96.05999 -57.066223" fill-rule="evenodd"/><path fill="#000000" stroke="#000000" stroke-width="2.0" stroke-linecap="butt" d="m121.49708 391.97327l3.082428 -0.7849426l-6.461502 -1.2224426l4.1640167 5.089813z" fill-rule="evenodd"/></g></svg>
