<?xml version="1.0" encoding="utf-8"?>
<svg version="1.1" xmlns="http://www.w3.org/2000/svg" xmlns:xlink="http://www.w3.org/1999/xlink" x="0px" y="0px"
	 width="100%" height="100%" viewBox="0 0 14 14" xml:space="preserve">
<path fill="#BFBFBF" d="M7,0C3.134,0,0,3.134,0,7c0,3.866,3.134,7,7,7s7-3.134,7-7C14,3.134,10.866,0,7,0z M10.185,9.059
	c0.312,0.312,0.312,0.816,0,1.128c-0.312,0.311-0.816,0.311-1.128,0L6.978,8.108l-2.079,2.079c-0.312,0.311-0.816,0.311-1.128,0
	c-0.312-0.312-0.312-0.816,0-1.128L5.85,6.98L3.795,4.926c-0.311-0.312-0.311-0.816,0-1.128c0.312-0.312,0.816-0.312,1.128,0
	l2.054,2.054l2.085-2.085c0.312-0.312,0.816-0.312,1.128,0c0.311,0.312,0.311,0.816,0,1.128L8.105,6.98L10.185,9.059z"/>
</svg>
