<?xml version="1.0" encoding="utf-8"?>
<!-- Generator: Adobe Illustrator 16.0.4, SVG Export Plug-In . SVG Version: 6.00 Build 0)  -->
<!DOCTYPE svg PUBLIC "-//W3C//DTD SVG 1.1//EN" "http://www.w3.org/Graphics/SVG/1.1/DTD/svg11.dtd">
<svg version="1.1" id="icon" xmlns="http://www.w3.org/2000/svg" xmlns:xlink="http://www.w3.org/1999/xlink" x="0px" y="0px"
	 width="100%" height="100%" viewBox="0 0 38 47" enable-background="new 0 0 38 47" xml:space="preserve">
<g>
	<path fill="#B2B3B3" d="M28.583,4L34,9.415V43H7V4H28.583 M28.997,3H6v41h29V9L28.997,3L28.997,3z"/>
</g>
<path fill-rule="evenodd" clip-rule="evenodd" fill="#BFBFBF" d="M28.021,3h1v7h-1V3z"/>
<path fill-rule="evenodd" clip-rule="evenodd" fill="#BFBFBF" d="M29.021,10V9h6v1H29.021z"/>
<path opacity="0.2" fill-rule="evenodd" clip-rule="evenodd" fill="#454545" d="M27.348,28.749h-1.304v-1.978h0.965v-1.009H13.992
	v1.009h0.965v1.978h-1.304c-0.36,0-0.652-0.282-0.652-0.629V22.01c0-0.608,2.609-1.259,7.174-1.259c0.242,0,0.456,0,0.652,0
	c4.524,0,7.174,0.636,7.174,1.259v6.109C28,28.467,27.708,28.749,27.348,28.749z M25.499,22.296c-0.54,0-0.978,0.423-0.978,0.944
	s0.438,0.944,0.978,0.944s0.979-0.423,0.979-0.944S26.039,22.296,25.499,22.296z M16.015,16.411c0-0.348,0.292-0.629,0.652-0.629
	h7.666c0.36,0,0.652,0.282,0.652,0.629v3.336h-8.97V16.411z M24.985,32.152c0,0.348-0.292,0.629-0.652,0.629h-7.666
	c-0.36,0-0.652-0.282-0.652-0.629v-5.386h8.97V32.152z M23.993,27.333h-6.986v0.63h6.986V27.333z M23.993,28.593h-6.986v0.629h6.986
	V28.593z M23.993,29.852h-6.986v0.629h6.986V29.852z M23.993,31.111h-6.986v0.629h6.986V31.111z"/>
<path fill-rule="evenodd" clip-rule="evenodd" fill="#F26F71" d="M0,9h17v9H0V9z"/>
<g>
	<path fill="#FFFFFF" d="M6.149,12.752c0,0.178-0.027,0.349-0.081,0.513S5.927,13.574,5.804,13.7s-0.286,0.227-0.488,0.302
		s-0.452,0.113-0.749,0.113H4.128v1.667H3.583v-4.283h1.061c0.262,0,0.487,0.028,0.677,0.083s0.346,0.137,0.469,0.243
		s0.214,0.238,0.272,0.394S6.149,12.553,6.149,12.752z M4.128,13.651h0.378c0.182,0,0.34-0.016,0.476-0.047s0.248-0.082,0.337-0.151
		s0.156-0.159,0.201-0.27s0.067-0.245,0.067-0.403c0-0.277-0.08-0.483-0.24-0.617s-0.41-0.201-0.75-0.201H4.128V13.651z"/>
	<path fill="#FFFFFF" d="M10.195,13.599c0,0.361-0.047,0.678-0.141,0.951s-0.229,0.5-0.407,0.683s-0.396,0.32-0.655,0.412
		s-0.552,0.138-0.88,0.138H7.04v-4.283h1.192c0.299,0,0.569,0.045,0.812,0.135s0.448,0.223,0.618,0.4s0.301,0.396,0.394,0.658
		S10.195,13.255,10.195,13.599z M9.618,13.616c0-0.285-0.032-0.532-0.097-0.74s-0.158-0.379-0.281-0.514s-0.274-0.235-0.454-0.3
		s-0.384-0.098-0.612-0.098H7.585v3.349H8.06c0.516,0,0.904-0.143,1.166-0.428S9.618,14.177,9.618,13.616z"/>
	<path fill="#FFFFFF" d="M11.689,15.781h-0.545v-4.283h2.224v0.48h-1.679v1.512h1.567v0.48h-1.567V15.781z"/>
</g>
</svg>
