<?xml version="1.0" encoding="utf-8"?>
<svg version="1.1" id="Layer_1" xmlns="http://www.w3.org/2000/svg" xmlns:xlink="http://www.w3.org/1999/xlink" x="0px" y="0px"
	 width="100%" height="100%" viewBox="0 0 13.001 13.993" enable-background="new 0 0 13.001 13.993" xml:space="preserve">
<path fill="#848990" d="M12.74,13.385l-0.316,0.333c-0.349,0.367-0.915,0.367-1.264,0
	l-2.528-2.659c-0.293-0.308-0.325-0.77-0.126-1.13L7.125,8.474c-0.743,0.58-1.66,0.927-2.657,0.927C2,9.402,0,7.297,0,4.701
	C0,2.105,2,0,4.468,0c2.468,0,4.468,2.105,4.468,4.701c0,1.208-0.437,2.307-1.15,3.14l1.352,1.422
	c0.342-0.209,0.781-0.175,1.074,0.133l2.527,2.659C13.088,12.422,13.088,13.018,12.74,13.385z M7.81,4.682
	c0-1.947-1.5-3.526-3.351-3.526c-0.515,0-0.998,0.133-1.434,0.352c0.233,0.252-0.019,0,0,0c-0.363,0-0.948,0.879-0.948,1.29
	c0-0.02-0.378,0.602-0.626,0.358C1.238,3.619,1.108,4.132,1.108,4.682c0,1.947,1.5,3.525,3.351,3.525
	C6.31,8.207,7.81,6.629,7.81,4.682z"/>
</svg>
