<svg xmlns="http://www.w3.org/2000/svg" width="100%" height="100%" viewBox="0 0 128.366 119.076"><path d="M75.307 16.07l27.916 41.763c.021-1.302-.018-2.606-.112-3.91l-24.237-36.257c-1.168-.585-2.357-1.118-3.567-1.596zM45.646 15.024c-.681.216-1.358.447-2.031.698l47.801 71.511c.489-.526.964-1.062 1.424-1.607l-47.194-70.602zM50.997 13.68c-.731.135-1.459.294-2.186.466l46.055 68.899c.438-.606.858-1.224 1.264-1.849l-45.133-67.516zM42.508 19.68l-1.728 1.155 46.818 70.041c.537-.453 1.062-.916 1.571-1.391l-46.661-69.805zM38.786 23.872l-1.727 1.155 46.188 69.095.349-.221c.464-.311.912-.636 1.36-.96l-46.17-69.069zM91.456 27.137c-1.917-2.076-4-3.934-6.22-5.567l16.725 25.02c-.654-2.662-1.568-5.285-2.741-7.838l-7.764-11.615zM63.15 13.164c-.867-.082-1.737-.138-2.609-.168l39.877 59.654c.305-.815.59-1.638.846-2.469l-38.114-57.017zM34.469 26.763l-1.727 1.154 45.987 68.795c.62-.31 1.235-.635 1.846-.977l-46.106-68.972zM70.24 14.413c-.978-.256-1.961-.485-2.953-.673l35.019 52.388c.204-.987.373-1.981.511-2.981l-32.577-48.734zM56.801 13.009c-.793.04-1.587.096-2.379.179l43.469 65.03c.378-.699.74-1.406 1.08-2.123l-42.17-63.086zM14.953 53.987c-.085 1.184-.126 2.372-.117 3.562l26.931 40.289c1.096.464 2.209.88 3.336 1.254l-30.15-45.105zM18.222 40.175c-.326.784-.63 1.576-.909 2.376l39.26 58.734c.847.048 1.695.069 2.544.068l-40.895-61.178zM28.835 27.688l-1.728 1.156 46.761 69.952c.666-.237 1.33-.491 1.989-.764l-47.022-70.344zM31.375 91.644c1.499 1.202 3.069 2.292 4.692 3.277l-20.714-30.987c.29 1.876.696 3.742 1.234 5.587l14.788 22.123zM24.03 30.161c-.452.586-.889 1.183-1.309 1.788l45.718 68.392c.72-.156 1.438-.332 2.152-.525l-46.561-69.655zM16.151 46.429c-.234.939-.428 1.887-.601 2.839l34.143 51.078c.946.204 1.896.388 2.854.53l-36.396-54.447zM20.884 34.812c-.395.675-.767 1.361-1.125 2.053l43.005 64.333c.776-.065 1.551-.147 2.326-.254l-44.206-66.132z"/><path fill="#fff" stroke="#000" stroke-width="3" stroke-miterlimit="10" d="M97.905 52.154c0 23.125-18.747 41.873-41.874 41.873-23.126 0-41.874-18.747-41.874-41.873 0-23.126 18.748-41.873 41.874-41.873 23.127 0 41.874 18.747 41.874 41.873"/><path stroke="#000" stroke-width="4" stroke-miterlimit="10" fill="none" d="M44.002 52.914h24M56.002 64.913v-23.999"/></svg>