<svg xmlns="http://www.w3.org/2000/svg" width="100%" height="100%" viewBox="0 0 86.75 86.75"><path stroke-miterlimit="10" d="M85.248 43.377c0-23.125-18.747-41.873-41.874-41.873-23.126 0-41.874 18.747-41.874 41.873 0 23.126 18.748 41.873 41.874 41.873 23.127 0 41.874-18.747 41.874-41.873" stroke="#000" stroke-width="3"/><path stroke-miterlimit="10" d="M25.31 43.376h36.128m-18.064-18.063v36.128" fill="#fff" stroke="#fff" stroke-width="4"/><path stroke-miterlimit="10" d="M78.089 43.377c0-19.171-15.542-34.714-34.715-34.714-19.172 0-34.715 15.542-34.715 34.714 0 19.172 15.543 34.714 34.715 34.714 19.173 0 34.715-15.542 34.715-34.714" stroke="#fff" stroke-width="4" fill="none"/></svg>