<svg xmlns="http://www.w3.org/2000/svg" width="16" height="16" viewBox="0 0 16 16">
  <g fill="none" transform="translate(1 1)">
    <rect width="14" height="14" fill="#000"/>
    <rect width="5" height="1" x="1" y="11" fill="#FFFEFE"/>
    <path fill="#FFFEFE" d="M1,5.96113281 L1.85546875,5.96113281 C1.89648438,6.30390625 2.2421875,6.52363281 2.74023438,6.52363281 C3.20019531,6.52363281 3.52539063,6.30097656 3.52539063,5.98164062 C3.52539063,5.71210937 3.31445313,5.55683594 2.79589844,5.44550781 L2.24511719,5.32832031 C1.47460938,5.1671875 1.09667969,4.76582031 1.09667969,4.12128906 C1.09667969,3.32441406 1.73828125,2.8 2.71386719,2.8 C3.64550781,2.8 4.3046875,3.32148437 4.33105469,4.07441406 L3.49902344,4.07441406 C3.45800781,3.74042969 3.14746094,3.51777344 2.71972656,3.51777344 C2.27734375,3.51777344 1.984375,3.72285156 1.984375,4.04511719 C1.984375,4.30585937 2.18652344,4.45527344 2.68164063,4.56074219 L3.19140625,4.66914062 C4.04101563,4.84785156 4.40722656,5.2140625 4.40722656,5.8703125 C4.40722656,6.72285156 3.75390625,7.24433594 2.69335938,7.24433594 C1.68554688,7.24433594 1.03222656,6.74921875 1,5.96113281 Z M5.19603365,2.90546875 L6.86009615,2.90546875 C8.11693209,2.90546875 8.84349459,3.6671875 8.84349459,4.99140625 C8.84349459,6.36542969 8.12572115,7.1359375 6.86009615,7.1359375 L5.19603365,7.1359375 L5.19603365,2.90546875 Z M6.08079927,3.66132812 L6.08079927,6.38007812 L6.71947115,6.38007812 C7.50169771,6.38007812 7.94115084,5.89960937 7.94115084,5.00605469 C7.94115084,4.15058594 7.48704927,3.66132812 6.71947115,3.66132812 L6.08079927,3.66132812 Z M10.5170673,7.1359375 L9.63230167,7.1359375 L9.63230167,2.90839844 L10.5170673,2.90839844 L10.5170673,4.7921875 L10.5698017,4.7921875 L12.1313251,2.90839844 L13.1157001,2.90839844 L11.5746845,4.76289062 L13.2240985,7.1359375 L12.1635517,7.1359375 L10.9360126,5.36640625 L10.5170673,5.86152344 L10.5170673,7.1359375 Z"/>
  </g>
</svg>
