<?xml version="1.0" encoding="utf-8"?>
<!-- Generator: Adobe Illustrator 15.1.0, SVG Export Plug-In . SVG Version: 6.00 Build 0)  -->
<!DOCTYPE svg PUBLIC "-//W3C//DTD SVG 1.1//EN" "http://www.w3.org/Graphics/SVG/1.1/DTD/svg11.dtd">
<svg version="1.1" id="Layer_1" xmlns="http://www.w3.org/2000/svg" xmlns:xlink="http://www.w3.org/1999/xlink" x="0px" y="0px"
	 width="13px" height="13px" viewBox="0 0 13 13" enable-background="new 0 0 13 13" xml:space="preserve">
<g>
	<rect width="13" height="13"/>
	<g>
		<path fill="#FFFFFF" d="M0.498,7.812l1.108-0.14c0.023,0.36,0.072,0.636,0.146,0.823c0.12,0.305,0.292,0.458,0.515,0.458
			c0.166,0,0.295-0.078,0.385-0.234c0.09-0.155,0.135-0.337,0.135-0.543c0-0.194-0.043-0.37-0.129-0.524
			C2.571,7.499,2.374,7.354,2.062,7.215C1.55,6.986,1.187,6.68,0.968,6.3c-0.22-0.38-0.329-0.864-0.329-1.455
			c0-0.388,0.056-0.753,0.168-1.098s0.281-0.615,0.507-0.812C1.54,2.738,1.848,2.639,2.241,2.639c0.481,0,0.85,0.18,1.103,0.538
			c0.253,0.359,0.403,0.929,0.451,1.71L2.696,5.016c-0.028-0.34-0.09-0.586-0.185-0.74C2.419,4.121,2.288,4.044,2.125,4.044
			c-0.136,0-0.237,0.058-0.306,0.172C1.75,4.331,1.715,4.471,1.715,4.635c0,0.12,0.028,0.229,0.085,0.324
			c0.055,0.1,0.186,0.191,0.391,0.277C2.7,5.457,3.065,5.678,3.286,5.902c0.22,0.226,0.38,0.504,0.479,0.837
			c0.101,0.331,0.15,0.704,0.15,1.114c0,0.484-0.066,0.931-0.2,1.338C3.582,9.6,3.396,9.909,3.155,10.12
			c-0.242,0.211-0.543,0.315-0.908,0.315c-0.641,0-1.086-0.246-1.332-0.74C0.671,9.201,0.53,8.574,0.498,7.812z"/>
		<path fill="#FFFFFF" d="M4.521,2.768H6.25c0.341,0,0.616,0.092,0.827,0.277C7.286,3.23,7.46,3.496,7.598,3.842
			S7.834,4.591,7.896,5.05c0.062,0.459,0.094,0.946,0.094,1.46c0,0.807-0.047,1.432-0.139,1.875S7.632,9.2,7.469,9.5
			C7.306,9.801,7.131,10,6.944,10.1c-0.254,0.137-0.485,0.207-0.693,0.207h-1.73V2.768L4.521,2.768z M5.685,4.475v4.12H5.97
			c0.243,0,0.417-0.054,0.52-0.161c0.104-0.108,0.185-0.298,0.242-0.565c0.059-0.271,0.088-0.706,0.088-1.31
			c0-0.799-0.065-1.346-0.195-1.641C6.493,4.623,6.276,4.477,5.977,4.477H5.685V4.475z"/>
		<path fill="#FFFFFF" d="M8.606,2.768h1.164v2.85l1.221-2.85h1.55l-1.376,2.847l1.438,4.694h-1.435l-0.795-3.103L9.771,8.468v1.841
			H8.606V2.768z"/>
	</g>
</g>
</svg>
