<svg xmlns="http://www.w3.org/2000/svg" width="16" height="16" viewBox="0 0 16 16">
  <path fill="#59A869" fill-rule="evenodd" d="M1.05797872,7.87468085 L3.13244681,8.34904255 L4.08117021,7.06425532 C4.11101931,7.02424037 4.29776351,7.06272099 4.3093617,7.1112766 C4.3901628,7.44837667 4.54193462,7.76427124 4.75444834,8.03791729 C4.75910662,8.04391559 4.76379409,8.04989359 4.76851064,8.05585106 L5.08521277,8.45829787 C5.15936902,8.55269144 5.15104446,8.68766821 5.06585106,8.77223404 L4.04797872,9.79010638 C3.85154522,10.0164653 3.54622284,10.1159345 3.25414894,10.0487234 L0.663829787,9.45542553 C0.439790528,9.40408421 0.247868589,9.26048158 0.135396305,9.06003331 C0.022924021,8.85958505 0.000370469744,8.62094917 0.0732978723,8.40297872 C0.219108322,8.00182808 0.643111393,7.77434328 1.05797872,7.87468085 Z M10.01,3.11308511 C10.8190284,3.29552137 11.623138,2.78893234 11.8078723,1.98042553 C11.9442449,1.38608398 11.7087705,0.768161188 11.2114456,0.415305333 C10.7141206,0.0624494777 10.0531006,0.0443026533 9.53716561,0.369341724 C9.02123057,0.694380795 8.75220905,1.29845378 8.85576815,1.89938212 C8.95932724,2.50031046 9.41502781,2.97949074 10.01,3.11308511 L10.01,3.11308511 Z M5.33414894,1.53095745 C5.09800864,1.45373939 4.83851405,1.51514244 4.66202128,1.69 L2.92223404,3.40765957 C2.66219564,3.65727179 2.63751721,4.06476682 2.86553191,4.34393617 C2.98682858,4.48379607 3.16063317,4.5671736 3.34562944,4.57424853 C3.53062571,4.58132346 3.71029064,4.51146389 3.84191489,4.3812766 L5.30510638,2.93744681 L6.5,3.56117021 L5.27606383,5.43095745 C4.87628798,6.10690516 4.93458382,6.95934435 5.42265957,7.57457447 L7.18457447,9.81914894 L5.94680851,12.5035106 C5.78247162,12.8401666 5.8615181,13.2449975 6.14042553,13.4951064 C6.24394169,13.5824459 6.36747748,13.6427883 6.5,13.6707447 C6.53100631,13.6777372 6.56241301,13.6828177 6.59404255,13.6859574 C6.94280338,13.7231385 7.27650583,13.5340405 7.42382979,13.2157447 L8.86904255,10.0459574 C8.99745704,9.77483175 8.96384424,9.45470981 8.78191489,9.21617021 L7.66446809,7.11819149 L8.69893617,5.3106383 L9.22031915,6.37829787 C9.29974458,6.58837535 9.47961766,6.74433466 9.69882979,6.79319149 L9.76244681,6.80425532 L12.2130851,7.12234043 C12.3946311,7.1498745 12.5793783,7.09967145 12.7220213,6.98404255 C12.8654228,6.86856715 12.9545513,6.69882244 12.9681915,6.51521277 C12.9850198,6.15113242 12.7163684,5.83649566 12.3541489,5.79606383 L10.333617,5.53191489 L9.77351064,4.14893617 C9.64526878,3.83182905 9.42639558,3.55956042 9.14425532,3.36617021 C8.03467166,2.60468769 6.82012223,2.00882703 5.53882979,1.59734043 L5.33414894,1.53095745 Z" transform="translate(1 1)"/>
</svg>
