<?xml version="1.0" encoding="us-ascii" standalone="no"?><!-- Copyright 2000-2023 JetBrains s.r.o. and contributors. Use of this source code is governed by the Apache 2.0 license. -->
<svg xmlns="http://www.w3.org/2000/svg" xmlns:xlink="http://www.w3.org/1999/xlink" contentStyleType="text/css" height="414px" preserveAspectRatio="none" style="width:636px;height:414px;background:#FFFFFF;" version="1.1" viewBox="0 0 636 414" width="636px" zoomAndPan="magnify"><defs><filter height="300%" id="f16wprp0a1qjdl" width="300%" x="-1" y="-1"><feGaussianBlur result="blurOut" stdDeviation="2.0"/><feColorMatrix in="blurOut" result="blurOut2" type="matrix" values="0 0 0 0 0 0 0 0 0 0 0 0 0 0 0 0 0 0 .4 0"/><feOffset dx="4.0" dy="4.0" in="blurOut2" result="blurOut3"/><feBlend in="SourceGraphic" in2="blurOut3" mode="normal"/></filter></defs><g><!--cluster Configuration--><g id="cluster_Configuration"><rect fill="none" filter="url(#f16wprp0a1qjdl)" height="181" rx="2.5" ry="2.5" style="stroke:#181818;stroke-width:1.0;" width="308" x="7" y="7"/><text fill="#000000" font-family="Roboto,sans-serif" font-size="14" font-weight="bold" lengthAdjust="spacing" textLength="100" x="111" y="22.5352">Configuration</text></g><!--cluster Execution--><g id="cluster_Execution"><rect fill="none" filter="url(#f16wprp0a1qjdl)" height="164" rx="2.5" ry="2.5" style="stroke:#181818;stroke-width:1.0;" width="608" x="16" y="238"/><text fill="#000000" font-family="Roboto,sans-serif" font-size="14" font-weight="bold" lengthAdjust="spacing" textLength="69" x="285.5" y="253.5352">Execution</text></g><!--class RunProfile--><g id="elem_RunProfile"><rect codeLine="6" fill="#F1F1F1" filter="url(#f16wprp0a1qjdl)" height="26.4883" id="RunProfile" rx="2.5" ry="2.5" style="stroke:#181818;stroke-width:0.5;" width="77" x="204.5" y="42"/><text fill="#000000" font-family="Roboto,sans-serif" font-size="14" font-style="italic" lengthAdjust="spacing" textLength="71" x="207.5" y="60.5352">RunProfile</text></g><!--class RunConfiguration--><g id="elem_RunConfiguration"><rect codeLine="7" fill="#F1F1F1" filter="url(#f16wprp0a1qjdl)" height="26.4883" id="RunConfiguration" rx="2.5" ry="2.5" style="stroke:#181818;stroke-width:0.5;" width="129" x="23.5" y="146"/><text fill="#000000" font-family="Roboto,sans-serif" font-size="14" font-style="italic" lengthAdjust="spacing" textLength="123" x="26.5" y="164.5352">RunConfiguration</text></g><!--class RunProfileState--><g id="elem_RunProfileState"><rect codeLine="8" fill="#F1F1F1" filter="url(#f16wprp0a1qjdl)" height="26.4883" id="RunProfileState" rx="2.5" ry="2.5" style="stroke:#181818;stroke-width:0.5;" width="111" x="187.5" y="146"/><text fill="#000000" font-family="Roboto,sans-serif" font-size="14" font-style="italic" lengthAdjust="spacing" textLength="105" x="190.5" y="164.5352">RunProfileState</text></g><!--class Executor--><g id="elem_Executor"><rect codeLine="12" fill="#F1F1F1" filter="url(#f16wprp0a1qjdl)" height="26.4883" id="Executor" rx="2.5" ry="2.5" style="stroke:#181818;stroke-width:0.5;" width="67" x="344.5" y="360"/><text fill="#000000" font-family="Roboto,sans-serif" font-size="14" font-style="italic" lengthAdjust="spacing" textLength="61" x="347.5" y="378.5352">Executor</text></g><!--class ProgramRunner--><g id="elem_ProgramRunner"><rect codeLine="13" fill="#F1F1F1" filter="url(#f16wprp0a1qjdl)" height="26.4883" id="ProgramRunner" rx="2.5" ry="2.5" style="stroke:#181818;stroke-width:0.5;" width="115" x="321.5" y="273"/><text fill="#000000" font-family="Roboto,sans-serif" font-size="14" font-style="italic" lengthAdjust="spacing" textLength="109" x="324.5" y="291.5352">ProgramRunner</text></g><!--class ExecutionEnvironment--><g id="elem_ExecutionEnvironment"><rect codeLine="14" fill="#F1F1F1" filter="url(#f16wprp0a1qjdl)" height="26.4883" id="ExecutionEnvironment" rx="2.5" ry="2.5" style="stroke:#181818;stroke-width:0.5;" width="161" x="446.5" y="360"/><text fill="#000000" font-family="Roboto,sans-serif" font-size="14" lengthAdjust="spacing" textLength="155" x="449.5" y="378.5352">ExecutionEnvironment</text></g><!--class RunContentBuilder--><g id="elem_RunContentBuilder"><rect codeLine="15" fill="#F1F1F1" filter="url(#f16wprp0a1qjdl)" height="26.4883" id="RunContentBuilder" rx="2.5" ry="2.5" style="stroke:#181818;stroke-width:0.5;" width="136" x="472" y="273"/><text fill="#000000" font-family="Roboto,sans-serif" font-size="14" lengthAdjust="spacing" textLength="130" x="475" y="291.5352">RunContentBuilder</text></g><!--class ExecutionResult--><g id="elem_ExecutionResult"><rect codeLine="16" fill="#F1F1F1" filter="url(#f16wprp0a1qjdl)" height="26.4883" id="ExecutionResult" rx="2.5" ry="2.5" style="stroke:#181818;stroke-width:0.5;" width="116" x="170" y="273"/><text fill="#000000" font-family="Roboto,sans-serif" font-size="14" font-style="italic" lengthAdjust="spacing" textLength="110" x="173" y="291.5352">ExecutionResult</text></g><!--class ExecutionConsole--><g id="elem_ExecutionConsole"><rect codeLine="17" fill="#F1F1F1" filter="url(#f16wprp0a1qjdl)" height="26.4883" id="ExecutionConsole" rx="2.5" ry="2.5" style="stroke:#181818;stroke-width:0.5;" width="130" x="32" y="360"/><text fill="#000000" font-family="Roboto,sans-serif" font-size="14" font-style="italic" lengthAdjust="spacing" textLength="124" x="35" y="378.5352">ExecutionConsole</text></g><!--class ProcessHandler--><g id="elem_ProcessHandler"><rect codeLine="18" fill="#F1F1F1" filter="url(#f16wprp0a1qjdl)" height="26.4883" id="ProcessHandler" rx="2.5" ry="2.5" style="stroke:#181818;stroke-width:0.5;" width="112" x="197" y="360"/><text fill="#000000" font-family="Roboto,sans-serif" font-size="14" font-style="italic" lengthAdjust="spacing" textLength="106" x="200" y="378.5352">ProcessHandler</text></g><!--reverse link RunProfile to RunConfiguration--><g id="link_RunProfile_RunConfiguration"><path codeLine="21" d="M206.74,79.86 C175.43,100.46 131.47,129.39 106.76,145.65 " fill="none" id="RunProfile-backto-RunConfiguration" style="stroke:#181818;stroke-width:1.0;stroke-dasharray:7.0,7.0;"/><polygon fill="none" points="202.48,74.28,223.04,69.14,210.18,85.98,202.48,74.28" style="stroke:#181818;stroke-width:1.0;"/></g><!--link RunProfile to RunProfileState--><g id="link_RunProfile_RunProfileState"><path codeLine="22" d="M243,68.1 C243,85.72 243,118.59 243,139.32 " fill="none" id="RunProfile-to-RunProfileState" style="stroke:#181818;stroke-width:1.0;"/><polygon fill="#181818" points="243,144.08,247,135.08,243,139.08,239,135.08,243,144.08" style="stroke:#181818;stroke-width:1.0;"/><text fill="#000000" font-family="Roboto,sans-serif" font-size="14" lengthAdjust="spacing" textLength="49" x="244" y="112.5352">creates</text></g><!--link RunProfileState to ExecutionResult--><g id="link_RunProfileState_ExecutionResult"><path codeLine="24" d="M241.51,172.44 C238.87,194.44 233.36,240.3 230.26,266.18 " fill="none" id="RunProfileState-to-ExecutionResult" style="stroke:#181818;stroke-width:1.0;"/><polygon fill="#181818" points="229.67,271.11,234.7225,262.6559,230.2708,266.1462,226.7804,261.6946,229.67,271.11" style="stroke:#181818;stroke-width:1.0;"/><text fill="#000000" font-family="Roboto,sans-serif" font-size="14" lengthAdjust="spacing" textLength="61" x="238" y="218.5352">prepares</text></g><!--reverse link ExecutionResult to ExecutionConsole--><g id="link_ExecutionResult_ExecutionConsole"><path codeLine="26" d="M196.8,307.25 C171.7,323.53 137.23,345.9 116.07,359.63 " fill="none" id="ExecutionResult-backto-ExecutionConsole" style="stroke:#181818;stroke-width:1.0;"/><polygon fill="none" points="207.68,300.18,200.4695,300.0855,197.6091,306.705,204.8195,306.7995,207.68,300.18" style="stroke:#181818;stroke-width:1.0;"/><text fill="#000000" font-family="Roboto,sans-serif" font-size="14" lengthAdjust="spacing" textLength="9" x="112.6248" y="349.0178">1</text></g><!--reverse link ExecutionResult to ProcessHandler--><g id="link_ExecutionResult_ProcessHandler"><path codeLine="27" d="M235.54,312.63 C240.11,328.17 245.73,347.3 249.34,359.57 " fill="none" id="ExecutionResult-backto-ProcessHandler" style="stroke:#181818;stroke-width:1.0;"/><polygon fill="none" points="232.01,300.63,229.8672,307.5154,235.3989,312.1415,237.5416,305.2562,232.01,300.63" style="stroke:#181818;stroke-width:1.0;"/><text fill="#000000" font-family="Roboto,sans-serif" font-size="14" lengthAdjust="spacing" textLength="9" x="237.229" y="348.935">1</text></g><!--link ProgramRunner to RunProfile--><g id="link_ProgramRunner_RunProfile"><path codeLine="29" d="M376.48,272.87 C369.43,241.21 346.99,154.63 302,98 C293.81,87.69 282.44,78.78 271.87,71.86 " fill="none" id="ProgramRunner-to-RunProfile" style="stroke:#181818;stroke-width:1.0;"/><polygon fill="#181818" points="267.72,69.23,273.1924,77.4186,271.9471,71.9005,277.4652,70.6552,267.72,69.23" style="stroke:#181818;stroke-width:1.0;"/><text fill="#000000" font-family="Roboto,sans-serif" font-size="14" lengthAdjust="spacing" textLength="61" x="354" y="164.5352">executes</text></g><!--link ProgramRunner to Executor--><g id="link_ProgramRunner_Executor"><path codeLine="30" d="M378.86,299.18 C378.69,313.36 378.41,336.95 378.22,353.42 " fill="none" id="ProgramRunner-to-Executor" style="stroke:#181818;stroke-width:1.0;"/><polygon fill="#181818" points="378.16,358.05,382.2882,349.1081,378.2314,353.0505,374.289,348.9938,378.16,358.05" style="stroke:#181818;stroke-width:1.0;"/></g><!--link ProgramRunner to ExecutionEnvironment--><g id="link_ProgramRunner_ExecutionEnvironment"><path codeLine="31" d="M400.52,299.36 C426.83,314.47 471.36,340.05 499.96,356.47 " fill="none" id="ProgramRunner-to-ExecutionEnvironment" style="stroke:#181818;stroke-width:1.0;"/><polygon fill="#181818" points="504.14,358.87,498.3357,350.9133,499.8067,356.3755,494.3445,357.8465,504.14,358.87" style="stroke:#181818;stroke-width:1.0;"/></g><!--link ProgramRunner to RunContentBuilder--><g id="link_ProgramRunner_RunContentBuilder"><path codeLine="32" d="M436.86,286 C446.24,286 455.63,286 465.01,286 " fill="none" id="ProgramRunner-to-RunContentBuilder" style="stroke:#181818;stroke-width:1.0;"/><polygon fill="#181818" points="469.99,286,460.99,282,464.99,286,460.99,290,469.99,286" style="stroke:#181818;stroke-width:1.0;"/></g><!--SRC=[TL5BJyCm3BxdLvZTEudhDFK0ciGHZL_WPbuNoADo70G2_ZjUXxOrewT4_bv-tBbeVTaHl7RDu35A2RwH0mLQ3lervk0Kf3389mGA7N4-bQnZwycO0UqRzWIFAUvTNnZ5fGZhzPQiOEmzjIry6G0NXNYFbc1RuZEdlLDrLPvup6XU18NCpoLuyq6sp8HYbuNH2bYFEVzH4q-irRTd39eGwOXSKzLr4zyTfnWeoXayjIfQUYZExqRPlr6gtr8kNYQ9PqnDSXhNKAcr9qivFs7SUNNNQIyBWFNtSdcxhIj2qxJrmbPWcVJDrquZChAhRbSmC0t8Hte5GMeQMDmlReUO8rQpcCc-grvNGAEB1j_IpjURWwfhLJG-9LM7-mK0]--></g></svg>
